<?xml version="1.0" encoding="UTF-8"?>
<svg version="1.1" viewBox="0 0 300 312" xmlns="http://www.w3.org/2000/svg" >
<g transform="translate(.31894 .3418)" stroke-width="1.3333">
<path d="m91.285 310.76c-11.511-1.827-11.941-2.1877-23.337-19.586-12.729-19.433-14.355-24.16-12.02-34.943 0.90095-4.1601 1.8918-8.8927 2.2019-10.517 0.34923-1.8292 1.2575-2.6867 2.3868-2.2534 1.2622 0.48434 2.1156-0.8601 2.7741-4.3702 1.2463-6.6435 1.9011-7.5339 4.161-5.6583 1.5205 1.2619 1.8813 1.0104 1.8813-1.3114 0-1.58 0.96697-5.1035 2.1488-7.8299l2.1488-4.9572 1.2901 4c2.5395 7.8737 2.8789 7.8988 3.802 0.28182 0.91444-7.5449 2.4433-11.092 3.5075-8.1376 0.29272 0.81266 1.3915 2.6127 2.4417 4 1.7454 2.3056 1.9132 1.9848 1.9519-3.7322 0.05441-8.026 1.6184-8.901 4.8048-2.6882l2.5351 4.9429 1.3692-17.333 4.5599 8 0.05339-6.4966c0.04419-5.3765 0.37137-6.2327 1.8977-4.966 2.7795 2.3068 3.7193-1.1978 4.4896-16.742 0.55921-11.284 0.20381-15.057-2.1351-22.667-1.5433-5.0209-4.1653-11.229-5.8267-13.796l-3.0207-4.6667-0.42684 4.3333c-0.23476 2.3833-0.91982 4.3333-1.5223 4.3333-1.5417 0-5.1158-5.7279-6.1532-9.8611-1.3145-5.2375-2.9793-4.1817-3.9854 2.5278-0.49487 3.3-1.4404 6-2.1013 6-1.764 0-6.2956-7.8617-8.07-14l-1.5416-5.3333-2.0145 8.3648c-1.1079 4.6006-2.6569 8.157-3.442 7.9032-0.78516-0.25387-3.6498-4.7557-6.3658-10.004s-5.2076-9.1047-5.5368-8.5698-1.0262 3.8299-1.5489 7.3223c-0.52269 3.4924-1.4352 6.6494-2.0279 7.0157-1.4163 0.87533-5.8437-5.4363-9.7935-13.962-3.4546-7.4563-4.8212-6.6894-4.8212 2.7053 0 2.8734-0.61322 5.2243-1.3627 5.2243-1.4508 0-8.7553-10.837-10.046-14.906-1.1178-3.522-2.6511-2.9921-4.9244 1.7017l-2 4.1294-3.4468-4.519c-4.5579-5.9757-9.6075-17.199-12.157-27.02-3.6127-13.918-2.084-37.885 3.5754-56.053 5.3064-17.035 17.348-25.175 48.752-32.952 16.06-3.9775 38.405-4.0945 46.941-0.24563l5.9981 2.7043 9.8792-3.1372c8.8053-2.7962 10.671-2.9729 17.161-1.6257 8.6158 1.7886 18.54 9.6442 14.964 11.845-3.3893 2.0863-11.413 8.4123-10 7.8841 0.73334-0.27409 6.7333-3.2576 13.333-6.63 19.296-9.8596 28.391-12.364 41.215-11.349 12.345 0.97697 23.446 3.6559 28.283 6.8254 7.0176 4.5981 25.481 37.973 26.347 47.626 0.32993 3.6769 2.9722 7.9626 11.266 18.274 22.417 27.869 40.222 57.996 40.222 68.058 0 8.9419-6.2283 37.489-12.151 55.694-6.7078 20.618-18.472 44.533-23.757 48.297-7.1089 5.062-41.971 22.225-53.828 26.5-10.44 3.7642-13.322 4.2317-26.085 4.2317h-14.349l-16.807 13.158c-25.101 19.651-24.304 19.268-40.906 19.664-7.7642 0.1853-17.138-0.14269-20.832-0.72885zm2.0285-45.093c-0.0108-0.55-1.1228-4.5341-2.4711-8.8536l-2.4514-7.8536-1.5289 4.3858c-0.8409 2.4122-1.5289 6.3963-1.5289 8.8536 0 4.0752 0.35139 4.4677 4 4.4677 2.2 0 3.9912-0.45 3.9804-1zm-14.59-3.5169c-0.66571-1.751-1.3921-6.851-1.6143-11.333-0.22214-4.4824-0.59324-8.1498-0.82465-8.1498-1.3935 0-4.2847 10.168-4.2847 15.068 0 6.6676 0.59484 7.5984 4.8559 7.5984 2.6938 0 2.927-0.3975 1.8677-3.1835zm27.502 1.0775c0.4445-1.1583-0.59873-4.9083-2.3183-8.3333l-3.1265-6.2272-1.6211 5.3333c-2.8092 9.2423-2.4004 11.333 2.2158 11.333 2.4532 0 4.3595-0.82777 4.85-2.1061zm10.947-5.7662c1.5067-0.95433 1.2143-2.4565-1.618-8.3129l-3.457-7.1481-0.0487 8.3333c-0.0494 8.4485 0.91665 9.7923 5.1237 7.1277zm13.135-8.3014c1.1205-1.1205 0.72971-2.7449-1.5237-6.3333-1.6669-2.6544-3.3778-5.7263-3.8018-6.8263s-0.81836 0.80093-0.87626 4.2243c-0.16245 9.6059 2.1703 12.967 6.2018 8.9353zm9.6009-7.7412c1.602-1.0138 1.3881-2.1935-1.3333-7.3565l-3.2413-6.1491-0.43157 4.2281c-0.49029 4.8033 0.66853 10.536 2.1236 10.505 0.53603-0.0107 1.8332-0.56374 2.8825-1.2278zm10.759-8.1955c0-0.63715-1.1978-3.123-2.6617-5.524l-2.6617-4.3656-5e-3 5.4444c-3e-3 2.9945 0.35367 5.8031 0.79204 6.2415 1.056 1.056 4.5363-0.32213 4.5363-1.7963zm12-5.1907c0-0.71562-1.1978-3.2656-2.6617-5.6667l-2.6617-4.3656-5e-3 5.6667c-4e-3 4.7794 0.41254 5.6667 2.6617 5.6667 1.4667 0 2.6667-0.58549 2.6667-1.3011zm-23.795-86.366c2.4528-4.2167 4.6327-8.0345 4.8442-8.4841 0.21146-0.44959-1.5247-1.6082-3.858-2.5747-3.9107-1.6199-4.436-1.5183-6.7169 1.2985-2.8204 3.4831-3.1893 9.0659-0.92706 14.031 0.85104 1.8678 1.6938 3.3961 1.8727 3.3961 0.17894 0 2.3322-3.45 4.7851-7.6667zm-14.427-13.098c-0.85139-2.2187-7.2385-5.9025-10.234-5.9025-4.4547 0-4.0526 9.5718 0.80936 19.269l2.6417 5.2688 3.7754-8.317c2.0765-4.5744 3.4298-9.2176 3.0075-10.318zm-18.079-11.145c-0.42937-2.2295-8.4879-8.0905-11.124-8.0905-4.4039 0-3.2548 13.26 1.8261 21.07 1.9897 3.0587 2.0117 3.0438 5.8398-3.9564 2.1134-3.8647 3.6695-7.9252 3.458-9.0234zm-21.559-5.0715 3.8458-6.9811-3.9933-3.9388c-2.1963-2.1664-5.5667-4.3207-7.4899-4.7875-2.9988-0.72781-3.6254-0.33519-4.4017 2.7577-1.1198 4.4617 0.08489 10.34 3.5023 17.089 2.9182 5.7634 3.1405 5.6557 8.5367-4.1397zm-22.16-8.3142c4.9292-9.7646 4.9655-11.1 0.39969-14.692-2.6884-2.1147-5.1751-2.7659-9.6667-2.5314-3.3259 0.17364-7.4636-0.4454-9.1949-1.3756-1.9715-1.0593-5.2101-1.3785-8.6667-0.85409-3.0354 0.46049-8.6903 0.96717-12.566 1.126-10.208 0.4182-11.762 3.6867-6.7122 14.119l2.907 6.0052 2.4854-5.8522c4.3726-10.296 4.8647-10.346 10.707-1.1059 4.7003 7.4338 5.4028 8.0411 6.6165 5.7199 2.8215-5.3963 8.1184-12.597 9.2664-12.597 0.65662 0 1.5537 1.05 1.9936 2.3333 1.4966 4.3663 7.4788 17.667 7.9461 17.667 0.25596 0 2.274-3.5829 4.4846-7.962zm134.92-46.521c0.49811-0.46758 1.3336-2.5815 1.8566-4.6977l0.95095-3.8475-7.1899 0.66998c-3.9545 0.36849-8.96 1.3807-11.123 2.2493l-3.9335 1.5793 6.6002 3.1458c5.9996 2.8595 10.422 3.1698 12.839 0.90074z" fill="#9c9c9c"/>
<path d="m93.046 310.76c-12.671-1.7738-14.286-2.9776-23.872-17.79-14.792-22.859-15.408-25.03-11.926-42.011 1.4133-6.8929 2.0438-8.1012 3.5674-6.8368 1.4256 1.1832 1.8523 1.1156 1.8581-0.29405 0.0041-1.0064 0.64354-4.1206 1.421-6.9204 1.1684-4.2075 1.7453-4.8152 3.3259-3.5034 1.5603 1.2949 1.9123 1.0582 1.9123-1.2856 0-1.58 0.96069-5.1035 2.1349-7.8299l2.1349-4.9572 4.215 13.333 1.0275-8.4921c1.0035-8.2937 2.3158-11.665 3.385-8.6969 0.29272 0.81266 1.3915 2.6127 2.4417 4 1.761 2.3263 1.9144 2.1077 1.9723-2.8109 0.09689-8.2258 1.7615-9.5074 4.7717-3.6737l2.5836 5.007 0.39987-7.6667c0.42498-8.148 1.618-9.5494 3.9728-4.6667 1.2848 2.6641 1.457 2.3495 1.5371-2.8093 0.07049-4.5379 0.51862-5.6449 2.0475-5.0582 2.6555 1.019 2.9394 0.31985 4.5384-11.176 1.925-13.84 0.0275-26.027-6.0131-38.623l-4.7958-10-3.0201 10.324-3-5.3436c-1.65-2.939-3-6.3473-3-7.574 0-4.1221-2.4256-0.77951-3.3333 4.5936-0.49428 2.9256-1.3952 5.6262-2.0021 6.0013-1.5065 0.93107-6.4666-7.3452-7.5007-12.515-1.3144-6.5721-2.7561-6.0904-4.5408 1.5171-0.90278 3.8483-1.9452 7.5238-2.3165 8.1678-0.8024 1.3916-9.4067-11.858-10.501-16.171-1.2384-4.8799-2.827-3.4478-3.7685 3.3971-1.3169 9.5753-2.4648 10.62-6.0846 5.5361-1.6892-2.3722-4.4065-7.5986-6.0386-11.614-3.1685-7.796-3.5741-7.5403-5.2618 3.3168l-0.87606 5.6359-3.2259-3.8337c-1.7742-2.1086-4.3821-6.4161-5.7951-9.5724l-2.5693-5.7386-2.4262 4.2614c-1.3344 2.3438-2.8136 4.2652-3.2872 4.2698-1.84 0.018-9.5634-13.761-12.877-22.973-3.0216-8.4001-3.485-11.808-3.4927-25.685-0.015703-28.423 6.0505-47.706 17.568-55.845 10.606-7.4943 30.341-13.994 51.138-16.841 12.225-1.6739 22.899-0.75866 32.317 2.771 5.0291 1.8848 7.2422 2.1094 10 1.0146 1.9479-0.77324 6.3919-2.1828 9.8757-3.1323 8.9354-2.4354 19.763 0.13281 25.505 6.0498 2.3002 2.3701 3.5065 4.5363 2.6979 4.8446-2.836 1.0814-12.652 8.8012-12.009 9.4443 0.35831 0.35832 2.5552-0.70406 4.8819-2.3608 6.2277-4.4345 28.806-14.32 36.786-16.106 5.2638-1.178 9.8317-1.1762 19.061 0.00744 18.614 2.3871 23.614 4.7252 30.327 14.181 8.5148 11.994 17.921 31.259 18.719 38.339 0.5469 4.852 1.9947 7.7038 6.7229 13.242 15.526 18.186 28.221 36.634 39.583 57.524 6.2333 11.46 6.3953 12.043 5.6292 20.246-2.8165 30.162-20.781 83.275-32.794 96.957-3.1943 3.6381-10.704 8.1369-27.908 16.718-31.032 15.479-37.761 17.612-55.565 17.612h-13.971l-15.001 11.775c-25.909 20.337-25.46 20.107-40.554 20.792-7.2125 0.32736-16.543 0.1152-20.734-0.47154zm-0.16739-43.786c1.1276-0.71746 0.71562-3.4501-1.5229-10.102l-3.0686-9.1184-1.3818 4.4556c-3.0525 9.8428-3.189 12.829-0.65379 14.303 2.8744 1.672 4.542 1.7881 6.6271 0.46133zm-13.594-3.9756c-0.55215-2.0167-1.4073-7.8667-1.9004-13l-0.89651-9.3333-2.095 4.6667c-1.1522 2.5667-2.5072 7.1716-3.0111 10.233-0.75911 4.6125-0.44195 6.0406 1.8508 8.3333 4.1572 4.1571 7.3084 3.6887 6.0521-0.89975zm25.91 1.3333c2.6918-2.2237 2.7228-2.5212 0.66055-6.3333-1.1901-2.2-2.6235-5.5-3.1853-7.3333-1.006-3.2833-1.0538-3.2589-3.1795 1.6238-2.5711 5.9058-2.8134 12.556-0.49147 13.493 2.7376 1.1046 3.2475 0.98525 6.1957-1.4503zm13.411-8.7136c-0.03314-0.89087-1.506-4.3198-3.2731-7.6198l-3.2128-6-0.0603 8.1111c-0.0331 4.4611 0.31864 8.49 0.78172 8.9531 1.2215 1.2215 5.8354-1.5354 5.7644-3.4444zm11.76-6.6198c0.9673-1.1862 0.24872-3.5886-2.4925-8.3333l-3.8517-6.6667-0.0109 7.4444c-6e-3 4.0944 0.38912 7.8444 0.87801 8.3333 1.4063 1.4063 3.9958 1.0386 5.477-0.77777zm10.459-8.2649c0.40765-1.0624-0.8055-4.5124-2.6959-7.6667l-3.4371-5.7351-0.012 7.6667c-0.0107 6.8214 0.286 7.6667 2.6959 7.6667 1.4897 0 3.0421-0.8692 3.4497-1.9316zm9.5029-6.263c1.1483-1.1483 0.80043-2.8021-1.4-6.6564-3.4624-6.065-4.9346-6.5095-4.9096-1.4824 0.0417 8.4149 2.6584 11.79 6.3096 8.1388zm12.706-5.9506c0.44648-0.44648-0.80352-3.2609-2.7778-6.2543-3.2561-4.9369-3.6308-5.1586-4.0334-2.3859-0.7302 5.0286 0.94536 9.452 3.5804 9.452 1.3305 0 2.7843-0.36529 3.2308-0.81177zm-27.034-80.817c0-0.80919 1.9116-4.4502 4.248-8.0912 4.0826-6.3621 4.1505-6.6912 1.7452-8.4501-3.5787-2.6168-8.3367-2.2586-9.9462 0.74889-1.8292 3.4178-1.7545 11.141 0.14806 15.316 1.4708 3.228 3.805 3.5199 3.805 0.47592zm-16-4.0291c0-0.82518 1.2941-4.1736 2.8757-7.4408 3.3436-6.907 2.6169-9.0274-4.3089-12.572-4.2862-2.1938-4.6692-2.1987-6.2335-0.0785-3.0403 4.1208-0.99068 15.471 3.8463 21.299 1.5825 1.9068 3.8204 1.1995 3.8204-1.2074zm-16.218-18.004 4.4492-7.6088-4.8539-4.4482c-6.5035-5.96-10.555-5.4876-11.12 1.2965-0.38472 4.625 4.3066 18.456 6.2394 18.396 0.4597-0.0145 2.8379-3.4503 5.285-7.6351zm-16.814-22.709c-2.1463-3.2757-8.197-6.963-11.426-6.963-4.6799 0-4.7208 10.445-0.07745 19.763l3.4647 6.9528 5.0347-8.3265c4.7268-7.8172 4.9105-8.5161 3.0039-11.426zm-23.75 1.2783c4.7733-9.9869 4.0951-14.217-2.7369-17.072-2.8606-1.1952-6.3235-1.6438-8.6855-1.125-2.5303 0.55574-5.6335 0.05351-8.7204-1.4113-4.1872-1.9869-5.4835-2.0525-10.267-0.51898-3.0112 0.9653-7.7484 1.5805-10.527 1.3671-9.3546-0.71831-11.393 4.9853-5.664 15.852 2.7097 5.1399 3.2907 5.6177 4.0528 3.3333 2.0706-6.2063 5.1358-12.667 6.0099-12.667 0.51772 0 3.2196 3.6911 6.0042 8.2025l5.0629 8.2025 2.9842-5.8692c1.6413-3.228 4.1344-6.9091 5.5402-8.1801 2.4787-2.2411 2.6877-1.9888 6.9138 8.3473 2.3968 5.862 4.7781 10.398 5.2919 10.081 0.51376-0.31752 2.6473-4.1617 4.7412-8.5426zm134.71-47.205c1.1416-1.6298 2.0756-4.398 2.0756-6.1514 0-3.0441-0.28363-3.1455-6.2834-2.2458-3.4559 0.51824-8.5801 1.8612-11.387 2.9844l-5.1038 2.0421 6.3872 3.0618c8.1804 3.9214 11.728 3.998 14.312 0.30883z" fill="#cb5959"/>
<path d="m93.046 310.76c-12.671-1.7738-14.286-2.9776-23.872-17.79-14.792-22.859-15.408-25.03-11.926-42.011 1.4133-6.8929 2.0438-8.1012 3.5674-6.8368 1.4256 1.1832 1.8523 1.1156 1.8581-0.29405 0.0041-1.0064 0.64354-4.1206 1.421-6.9204 1.1684-4.2075 1.7453-4.8152 3.3259-3.5034 1.5603 1.2949 1.9123 1.0582 1.9123-1.2856 0-1.58 0.96069-5.1035 2.1349-7.8299l2.1349-4.9572 4.215 13.333 1.0275-8.4921c1.0035-8.2937 2.3158-11.665 3.385-8.6969 0.29272 0.81266 1.3915 2.6127 2.4417 4 1.761 2.3263 1.9144 2.1077 1.9723-2.8109 0.09689-8.2258 1.7615-9.5074 4.7717-3.6737l2.5836 5.007 0.39987-7.6667c0.42498-8.148 1.618-9.5494 3.9728-4.6667 1.2848 2.6641 1.457 2.3495 1.5371-2.8093 0.07049-4.5379 0.51862-5.6449 2.0475-5.0582 2.6555 1.019 2.9394 0.31985 4.5384-11.176 1.925-13.84 0.0275-26.027-6.0131-38.623l-4.7958-10-3.0201 10.324-3-5.3436c-1.65-2.939-3-6.3473-3-7.574 0-4.1221-2.4256-0.77951-3.3333 4.5936-0.49428 2.9256-1.3952 5.6262-2.0021 6.0013-1.5065 0.93107-6.4666-7.3452-7.5007-12.515-1.3144-6.5721-2.7561-6.0904-4.5408 1.5171-0.90278 3.8483-1.9452 7.5238-2.3165 8.1678-0.8024 1.3916-9.4067-11.858-10.501-16.171-1.2384-4.8799-2.827-3.4478-3.7685 3.3971-1.3169 9.5753-2.4648 10.62-6.0846 5.5361-1.6892-2.3722-4.4065-7.5986-6.0386-11.614-3.1685-7.796-3.5741-7.5403-5.2618 3.3168l-0.87606 5.6359-3.2259-3.8337c-1.7742-2.1086-4.3821-6.4161-5.7951-9.5724l-2.5693-5.7386-2.4262 4.2614c-1.3344 2.3438-2.8136 4.2652-3.2872 4.2698-1.84 0.018-9.5634-13.761-12.877-22.973-3.0216-8.4001-3.485-11.808-3.4927-25.685-0.015703-28.423 6.0505-47.706 17.568-55.845 10.606-7.4943 30.341-13.994 51.138-16.841 12.225-1.6739 22.899-0.75866 32.317 2.771 5.0291 1.8848 7.2422 2.1094 10 1.0146 1.9479-0.77324 6.3919-2.1828 9.8757-3.1323 8.9354-2.4354 19.763 0.13281 25.505 6.0498 2.3002 2.3701 3.5065 4.5363 2.6979 4.8446-2.836 1.0814-12.652 8.8012-12.009 9.4443 0.35831 0.35832 2.5552-0.70406 4.8819-2.3608 6.2277-4.4345 28.806-14.32 36.786-16.106 5.2638-1.178 9.8317-1.1762 19.061 0.00744 18.614 2.3871 23.614 4.7252 30.327 14.181 8.5148 11.994 17.921 31.259 18.719 38.339 0.5469 4.852 1.9947 7.7038 6.7229 13.242 15.526 18.186 28.221 36.634 39.583 57.524 6.2333 11.46 6.3953 12.043 5.6292 20.246-2.8165 30.162-20.781 83.275-32.794 96.957-3.1943 3.6381-10.704 8.1369-27.908 16.718-31.032 15.479-37.761 17.612-55.565 17.612h-13.971l-15.001 11.775c-25.909 20.337-25.46 20.107-40.554 20.792-7.2125 0.32736-16.543 0.1152-20.734-0.47154zm-0.16739-43.786c1.1276-0.71746 0.71562-3.4501-1.5229-10.102l-3.0686-9.1184-1.3818 4.4556c-3.0525 9.8428-3.189 12.829-0.65379 14.303 2.8744 1.672 4.542 1.7881 6.6271 0.46133zm-13.594-3.9756c-0.55215-2.0167-1.4073-7.8667-1.9004-13l-0.89651-9.3333-2.095 4.6667c-1.1522 2.5667-2.5072 7.1716-3.0111 10.233-0.75911 4.6125-0.44195 6.0406 1.8508 8.3333 4.1572 4.1571 7.3084 3.6887 6.0521-0.89975zm25.91 1.3333c2.6918-2.2237 2.7228-2.5212 0.66055-6.3333-1.1901-2.2-2.6235-5.5-3.1853-7.3333-1.006-3.2833-1.0538-3.2589-3.1795 1.6238-2.5711 5.9058-2.8134 12.556-0.49147 13.493 2.7376 1.1046 3.2475 0.98525 6.1957-1.4503zm13.411-8.7136c-0.03314-0.89087-1.506-4.3198-3.2731-7.6198l-3.2128-6-0.0603 8.1111c-0.0331 4.4611 0.31864 8.49 0.78172 8.9531 1.2215 1.2215 5.8354-1.5354 5.7644-3.4444zm11.76-6.6198c0.9673-1.1862 0.24872-3.5886-2.4925-8.3333l-3.8517-6.6667-0.0109 7.4444c-6e-3 4.0944 0.38912 7.8444 0.87801 8.3333 1.4063 1.4063 3.9958 1.0386 5.477-0.77777zm10.459-8.2649c0.40765-1.0624-0.8055-4.5124-2.6959-7.6667l-3.4371-5.7351-0.012 7.6667c-0.0107 6.8214 0.286 7.6667 2.6959 7.6667 1.4897 0 3.0421-0.8692 3.4497-1.9316zm9.5029-6.263c1.1483-1.1483 0.80043-2.8021-1.4-6.6564-3.4624-6.065-4.9346-6.5095-4.9096-1.4824 0.0417 8.4149 2.6584 11.79 6.3096 8.1388zm12.706-5.9506c0.44648-0.44648-0.80352-3.2609-2.7778-6.2543-3.2561-4.9369-3.6308-5.1586-4.0334-2.3859-0.7302 5.0286 0.94536 9.452 3.5804 9.452 1.3305 0 2.7843-0.36529 3.2308-0.81177zm-27.034-80.817c0-0.80919 1.9116-4.4502 4.248-8.0912 4.0826-6.3621 4.1505-6.6912 1.7452-8.4501-3.5787-2.6168-8.3367-2.2586-9.9462 0.74889-1.8292 3.4178-1.7545 11.141 0.14806 15.316 1.4708 3.228 3.805 3.5199 3.805 0.47592zm-16-4.0291c0-0.82518 1.2941-4.1736 2.8757-7.4408 3.3436-6.907 2.6169-9.0274-4.3089-12.572-4.2862-2.1938-4.6692-2.1987-6.2335-0.0785-3.0403 4.1208-0.99068 15.471 3.8463 21.299 1.5825 1.9068 3.8204 1.1995 3.8204-1.2074zm86.711-8.3423 0.0444-4 2.5769 3.0917c1.9584 2.3496 3.1246 2.7851 4.859 1.8145 1.9394-1.0853 1.4536-1.6998-3.2348-4.0917-3.0343-1.548-6.9369-2.8145-8.6724-2.8145-2.7477 0-3.0796 0.51696-2.5684 4 0.77718 5.2953-1.0237 5.0351-4.7278-0.68317-2.2743-3.5109-3.9391-4.6502-6.7952-4.6502h-3.7829l5.0018 5.4179c2.751 2.9798 5.7215 7.1554 6.6011 9.279l1.5993 3.8611 4.5274-3.6124c3.3047-2.6368 4.5393-4.6926 4.5718-7.6124zm-102.93-9.6614 4.4492-7.6088-4.8539-4.4482c-6.5035-5.96-10.555-5.4876-11.12 1.2965-0.38472 4.625 4.3066 18.456 6.2394 18.396 0.4597-0.0145 2.8379-3.4503 5.285-7.6351zm-16.814-22.709c-2.1463-3.2757-8.197-6.963-11.426-6.963-4.6799 0-4.7208 10.445-0.07745 19.763l3.4647 6.9528 5.0347-8.3265c4.7268-7.8172 4.9105-8.5161 3.0039-11.426zm-23.75 1.2783c4.7733-9.9869 4.0951-14.217-2.7369-17.072-2.8606-1.1952-6.3235-1.6438-8.6855-1.125-2.5303 0.55574-5.6335 0.05351-8.7204-1.4113-4.1872-1.9869-5.4835-2.0525-10.267-0.51898-3.0112 0.9653-7.7484 1.5805-10.527 1.3671-9.3546-0.71831-11.393 4.9853-5.664 15.852 2.7097 5.1399 3.2907 5.6177 4.0528 3.3333 2.0706-6.2063 5.1358-12.667 6.0099-12.667 0.51772 0 3.2196 3.6911 6.0042 8.2025l5.0629 8.2025 2.9842-5.8692c1.6413-3.228 4.1344-6.9091 5.5402-8.1801 2.4787-2.2411 2.6877-1.9888 6.9138 8.3473 2.3968 5.862 4.7781 10.398 5.2919 10.081 0.51376-0.31752 2.6473-4.1617 4.7412-8.5426zm134.71-47.205c1.1416-1.6298 2.0756-4.398 2.0756-6.1514 0-3.0441-0.28363-3.1455-6.2834-2.2458-3.4559 0.51824-8.5801 1.8612-11.387 2.9844l-5.1038 2.0421 6.3872 3.0618c8.1804 3.9214 11.728 3.998 14.312 0.30883z" fill="#8fc223"/>
<path d="m93.046 310.76c-12.671-1.7738-14.286-2.9776-23.872-17.79-14.792-22.859-15.408-25.03-11.926-42.011 1.4133-6.8929 2.0438-8.1012 3.5674-6.8368 1.4256 1.1832 1.8523 1.1156 1.8581-0.29405 0.0041-1.0064 0.64354-4.1206 1.421-6.9204 1.1684-4.2075 1.7453-4.8152 3.3259-3.5034 1.5603 1.2949 1.9123 1.0582 1.9123-1.2856 0-1.58 0.96069-5.1035 2.1349-7.8299l2.1349-4.9572 4.215 13.333 1.0275-8.4921c1.0035-8.2937 2.3158-11.665 3.385-8.6969 0.29272 0.81266 1.3915 2.6127 2.4417 4 1.761 2.3263 1.9144 2.1077 1.9723-2.8109 0.09689-8.2258 1.7615-9.5074 4.7717-3.6737l2.5836 5.007 0.39987-7.6667c0.42498-8.148 1.618-9.5494 3.9728-4.6667 1.2848 2.6641 1.457 2.3495 1.5371-2.8093 0.07049-4.5379 0.51862-5.6449 2.0475-5.0582 2.6555 1.019 2.9394 0.31985 4.5384-11.176 1.925-13.84 0.0275-26.027-6.0131-38.623l-4.7958-10-3.0201 10.324-3-5.3436c-1.65-2.939-3-6.3473-3-7.574 0-4.1221-2.4256-0.77951-3.3333 4.5936-0.49428 2.9256-1.3952 5.6262-2.0021 6.0013-1.5065 0.93107-6.4666-7.3452-7.5007-12.515-1.3144-6.5721-2.7561-6.0904-4.5408 1.5171-0.90278 3.8483-1.9452 7.5238-2.3165 8.1678-0.8024 1.3916-9.4067-11.858-10.501-16.171-1.2384-4.8799-2.827-3.4478-3.7685 3.3971-1.3169 9.5753-2.4648 10.62-6.0846 5.5361-1.6892-2.3722-4.4065-7.5986-6.0386-11.614-3.1685-7.796-3.5741-7.5403-5.2618 3.3168l-0.87606 5.6359-3.2259-3.8337c-1.7742-2.1086-4.3821-6.4161-5.7951-9.5724l-2.5693-5.7386-2.4262 4.2614c-1.3344 2.3438-2.8136 4.2652-3.2872 4.2698-1.84 0.018-9.5634-13.761-12.877-22.973-3.0216-8.4001-3.485-11.808-3.4927-25.685-0.015703-28.423 6.0505-47.706 17.568-55.845 10.606-7.4943 30.341-13.994 51.138-16.841 12.225-1.6739 22.899-0.75866 32.317 2.771 5.0291 1.8848 7.2422 2.1094 10 1.0146 1.9479-0.77324 6.3919-2.1828 9.8757-3.1323 8.9354-2.4354 19.763 0.13281 25.505 6.0498 2.3002 2.3701 3.5065 4.5363 2.6979 4.8446-2.836 1.0814-12.652 8.8012-12.009 9.4443 0.35831 0.35832 2.5552-0.70406 4.8819-2.3608 6.2277-4.4345 28.806-14.32 36.786-16.106 5.2638-1.178 9.8317-1.1762 19.061 0.00744 18.614 2.3871 23.614 4.7252 30.327 14.181 8.5148 11.994 17.921 31.259 18.719 38.339 0.5469 4.852 1.9947 7.7038 6.7229 13.242 15.526 18.186 28.221 36.634 39.583 57.524 6.2333 11.46 6.3953 12.043 5.6292 20.246-2.8165 30.162-20.781 83.275-32.794 96.957-3.1943 3.6381-10.704 8.1369-27.908 16.718-31.032 15.479-37.761 17.612-55.565 17.612h-13.971l-15.001 11.775c-25.909 20.337-25.46 20.107-40.554 20.792-7.2125 0.32736-16.543 0.1152-20.734-0.47154zm3.9238-29.068c-2.7664-0.28863-6.9664-0.28379-9.3333 0.0107-2.367 0.29454-0.1036 0.5307 5.0297 0.52478 5.1333-5e-3 7.07-0.2469 4.3036-0.53554zm14.442-2.4338c2.4404-1.9552 2.3979-1.9829-0.74516-0.48605-4.0814 1.9438-4.8378 2.5596-3.1437 2.5596 0.71539 0 2.4654-0.93309 3.8889-2.0736zm14.092-9.5931c1.6585-2.1148 1.6113-2.1619-0.50341-0.50342-1.2833 1.0065-2.3333 2.0565-2.3333 2.3333 0 1.0974 1.0949 0.39108 2.8367-1.8299zm-32.624-2.691c1.1276-0.71746 0.71562-3.4501-1.5229-10.102l-3.0686-9.1184-1.3818 4.4556c-3.0525 9.8428-3.189 12.829-0.65379 14.303 2.8744 1.672 4.542 1.7881 6.6271 0.46133zm-13.594-3.9756c-0.55215-2.0167-1.4073-7.8667-1.9004-13l-0.89651-9.3333-2.095 4.6667c-1.1522 2.5667-2.5072 7.1716-3.0111 10.233-0.75911 4.6125-0.44195 6.0406 1.8508 8.3333 4.1572 4.1571 7.3084 3.6887 6.0521-0.89975zm25.91 1.3333c2.6918-2.2237 2.7228-2.5212 0.66055-6.3333-1.1901-2.2-2.6235-5.5-3.1853-7.3333-1.006-3.2833-1.0538-3.2589-3.1795 1.6238-2.5711 5.9058-2.8134 12.556-0.49147 13.493 2.7376 1.1046 3.2475 0.98525 6.1957-1.4503zm33.641-4c1.6585-2.1147 1.6113-2.1619-0.50342-0.50341-1.2833 1.0065-2.3333 2.0565-2.3333 2.3333 0 1.0974 1.0949 0.39108 2.8368-1.8299zm-20.23-4.7136c-0.03314-0.89087-1.506-4.3198-3.2731-7.6198l-3.2128-6-0.0603 8.1111c-0.0331 4.4611 0.31864 8.49 0.78172 8.9531 1.2215 1.2215 5.8354-1.5354 5.7644-3.4444zm25.564 0.71357c1.6585-2.1147 1.6113-2.1619-0.50341-0.50341-2.221 1.7418-2.9273 2.8368-1.8299 2.8368 0.27686 0 1.3269-1.05 2.3333-2.3333zm9.3333-6.6667c1.6585-2.1148 1.6113-2.1619-0.50341-0.50342-1.2833 1.0065-2.3333 2.0565-2.3333 2.3333 0 1.0974 1.0949 0.39108 2.8367-1.8299zm-23.137-0.66667c0.9673-1.1862 0.24872-3.5886-2.4925-8.3333l-3.8517-6.6667-0.0109 7.4444c-6e-3 4.0944 0.38912 7.8444 0.87801 8.3333 1.4063 1.4063 3.9958 1.0386 5.477-0.77777zm10.459-8.2649c0.40765-1.0624-0.8055-4.5124-2.6959-7.6667l-3.4371-5.7351-0.012 7.6667c-0.0107 6.8214 0.286 7.6667 2.6959 7.6667 1.4897 0 3.0421-0.8692 3.4497-1.9316zm24.678-0.40178c1.6585-2.1147 1.6113-2.1619-0.50341-0.50341-1.2833 1.0065-2.3333 2.0565-2.3333 2.3333 0 1.0974 1.0949 0.39108 2.8367-1.8299zm5.3333-4c1.6585-2.1147 1.6113-2.1619-0.50342-0.50341-1.2833 1.0065-2.3333 2.0565-2.3333 2.3333 0 1.0974 1.0949 0.39108 2.8368-1.8299zm-20.509-1.8612c1.1483-1.1483 0.80043-2.8021-1.4-6.6564-3.4624-6.065-4.9346-6.5095-4.9096-1.4824 0.0417 8.4149 2.6584 11.79 6.3096 8.1388zm26.722-6.6544c-0.33287-0.9986-0.93726-0.3942-1.4087 1.4087-0.57996 2.2178-0.40644 2.7384 0.58299 1.749 0.7748-0.7748 1.1464-2.1958 0.82575-3.1577zm-14.016 0.70384c0.44648-0.44648-0.80352-3.2609-2.7778-6.2543-3.2561-4.9369-3.6308-5.1586-4.0334-2.3859-0.7302 5.0286 0.94536 9.452 3.5804 9.452 1.3305 0 2.7843-0.36529 3.2308-0.81177zm15.218-14.855c-0.33537-1.2833-0.60977-0.23334-0.60977 2.3333s0.2744 3.6167 0.60977 2.3333c0.33536-1.2833 0.33536-3.3833 0-4.6667zm1.2973-8.6667c-0.36988-0.91667-0.67252-0.16667-0.67252 1.6667 0 1.8333 0.30264 2.5833 0.67252 1.6667 0.36988-0.91666 0.36988-2.4167 0-3.3333zm1.3611-5.25c-0.42562-1.0636-0.74157-0.74771-0.80554 0.80556-0.0579 1.4056 0.25722 2.193 0.70029 1.75 0.44305-0.44307 0.49041-1.5931 0.1052-2.5556zm15.259-32.75c1.6585-2.1148 1.6113-2.1619-0.50341-0.50341-2.221 1.7418-2.9273 2.8367-1.8299 2.8367 0.27686 0 1.3269-1.05 2.3333-2.3333zm5.1632-6.3333c1.7223-1.8333 2.8315-3.3333 2.4648-3.3333-0.36666 0-2.0758 1.5-3.7982 3.3333-1.7223 1.8333-2.8315 3.3333-2.4648 3.3333s2.0758-1.5 3.7982-3.3333zm-65.333-12.962c0-0.80919 1.9116-4.4502 4.248-8.0912 4.0826-6.3621 4.1505-6.6912 1.7452-8.4501-3.5787-2.6168-8.3367-2.2586-9.9462 0.74889-1.8292 3.4178-1.7545 11.141 0.14806 15.316 1.4708 3.228 3.805 3.5199 3.805 0.47592zm-16-4.0291c0-0.82518 1.2941-4.1736 2.8757-7.4408 3.3436-6.907 2.6169-9.0274-4.3089-12.572-4.2862-2.1938-4.6692-2.1987-6.2335-0.0785-3.0403 4.1208-0.99068 15.471 3.8463 21.299 1.5825 1.9068 3.8204 1.1995 3.8204-1.2074zm86.711-8.3423 0.0444-4 2.5769 3.0917c1.9584 2.3496 3.1246 2.7851 4.859 1.8145 1.9394-1.0853 1.4536-1.6998-3.2348-4.0917-3.0343-1.548-6.9369-2.8145-8.6724-2.8145-2.7477 0-3.0796 0.51696-2.5684 4 0.77718 5.2953-1.0237 5.0351-4.7278-0.68317-2.2743-3.5109-3.9391-4.6502-6.7952-4.6502h-3.7829l5.0018 5.4179c2.751 2.9798 5.7215 7.1554 6.6011 9.279l1.5993 3.8611 4.5274-3.6124c3.3047-2.6368 4.5393-4.6926 4.5718-7.6124zm21.956 10c1.6808-0.72229 1.9273-1.1459 0.66666-1.1459-1.1 0-3.2 0.51565-4.6667 1.1459-1.6809 0.7223-1.9273 1.1459-0.66667 1.1459 1.1 0 3.2-0.51565 4.6667-1.1459zm6.9722-2.1389c-0.44306-0.44305-1.5931-0.49041-2.5556-0.1052-1.0636 0.42563-0.7477 0.74157 0.80556 0.80555 1.4056 0.0579 2.1931-0.25723 1.75-0.7003zm-131.86-17.523 4.4492-7.6088-4.8539-4.4482c-6.5035-5.96-10.555-5.4876-11.12 1.2965-0.38472 4.625 4.3066 18.456 6.2394 18.396 0.4597-0.0145 2.8379-3.4503 5.285-7.6351zm-16.814-22.709c-2.1463-3.2757-8.197-6.963-11.426-6.963-4.6799 0-4.7208 10.445-0.07745 19.763l3.4647 6.9528 5.0347-8.3265c4.7268-7.8172 4.9105-8.5161 3.0039-11.426zm-23.75 1.2783c4.7733-9.9869 4.0951-14.217-2.7369-17.072-2.8606-1.1952-6.3235-1.6438-8.6855-1.125-2.5303 0.55574-5.6335 0.05351-8.7204-1.4113-4.1872-1.9869-5.4835-2.0525-10.267-0.51898-3.0112 0.9653-7.7484 1.5805-10.527 1.3671-9.3546-0.71831-11.393 4.9853-5.664 15.852 2.7097 5.1399 3.2907 5.6177 4.0528 3.3333 2.0706-6.2063 5.1358-12.667 6.0099-12.667 0.51772 0 3.2196 3.6911 6.0042 8.2025l5.0629 8.2025 2.9842-5.8692c1.6413-3.228 4.1344-6.9091 5.5402-8.1801 2.4787-2.2411 2.6877-1.9888 6.9138 8.3473 2.3968 5.862 4.7781 10.398 5.2919 10.081 0.51376-0.31752 2.6473-4.1617 4.7412-8.5426zm116.12-36.241c-0.45322-0.73333-1.5386-1.3241-2.412-1.3129-0.95415 0.01227-0.7897 0.5363 0.41202 1.3129 2.5615 1.6554 3.0231 1.6554 2 0zm-162.39-9.6667c-0.3178-1.65-0.57782-0.3-0.57782 3s0.26002 4.65 0.57782 3 0.3178-4.35 0-6zm156.39 7c-1.1-0.71087-2.9-1.2595-4-1.2192-1.3187 0.04833-1.0916 0.46363 0.66667 1.2192 3.6654 1.5751 5.7706 1.5751 3.3333 0zm-7.0278-2.1389c-0.44307-0.44306-1.5931-0.49042-2.5556-0.10527-1.0636 0.42564-0.74771 0.74158 0.80556 0.80556 1.4056 0.05789 2.193-0.25724 1.75-0.70029zm-10.306-3.1944c-1.1-0.71088-2.6-1.2925-3.3333-1.2925-0.73334 0-0.43334 0.58162 0.66666 1.2925s2.6 1.2925 3.3333 1.2925c0.73333 0 0.43333-0.58162-0.66667-1.2925zm41.924-2.9633c1.1416-1.6298 2.0756-4.398 2.0756-6.1514 0-3.0441-0.28363-3.1455-6.2834-2.2458-3.4559 0.51824-8.5801 1.8612-11.387 2.9844l-5.1038 2.0421 6.3872 3.0618c8.1804 3.9214 11.728 3.998 14.312 0.30883zm-49.924-0.32308c0-0.34087-1.35-1.274-3-2.0736-2.8808-1.3961-2.8972-1.3714-0.41183 0.61976 2.7204 2.1794 3.4118 2.4741 3.4118 1.4538zm-87.83-4.3802c1.6585-2.1147 1.6113-2.1619-0.50341-0.50341-2.221 1.7418-2.9273 2.8367-1.8299 2.8367 0.27688 0 1.3269-1.05 2.3333-2.3333zm-41.954-3.3333c-0.36988-0.91667-0.67252-0.16667-0.67252 1.6667 0 1.8333 0.30263 2.5833 0.67252 1.6667 0.36988-0.91667 0.36988-2.4167 0-3.3333zm12-2.6667c-0.36988-0.91667-0.67252-0.16667-0.67252 1.6667s0.30263 2.5833 0.67252 1.6667c0.36988-0.91667 0.36988-2.4167 0-3.3333zm27.287 2c1.6585-2.1147 1.6113-2.1619-0.50341-0.50341-2.221 1.7418-2.9273 2.8367-1.8299 2.8367 0.27688 0 1.3269-1.05 2.3333-2.3333zm8 0c1.6585-2.1147 1.6113-2.1619-0.50341-0.50341-2.221 1.7418-2.9273 2.8367-1.8299 2.8367 0.27688 0 1.3269-1.05 2.3333-2.3333zm71.83 1.8299c0-0.27688-1.05-1.3269-2.3333-2.3333-2.1147-1.6585-2.1619-1.6113-0.50341 0.50341 1.7418 2.221 2.8367 2.9273 2.8367 1.8299zm-114.85-6.6955c-1.1643-2.5553-1.9162-3.0681-2.6962-1.839-0.59491 0.93748-1.0487 2.6045-1.0084 3.7045 0.0468 1.277 0.45008 1.0361 1.1156-0.66667 1.0006-2.5598 1.0818-2.5424 2.028 0.43381 0.54213 1.7053 1.2534 2.8328 1.5805 2.5056s-0.13168-2.1894-1.0197-4.1383zm50.181 3.1989c-3.6654-1.5751-5.7706-1.5751-3.3333 0 1.1 0.71087 2.9 1.2595 4 1.2192 1.3187-0.04833 1.0917-0.46363-0.66667-1.2192zm11.333-2c1.7223-1.8333 2.8315-3.3333 2.4648-3.3333-0.36667 0-2.0758 1.5-3.7982 3.3333-1.7223 1.8333-2.8315 3.3333-2.4648 3.3333 0.36667 0 2.0758-1.5 3.7982-3.3333zm48 1.54c0-0.25301-1.35-1.603-3-3l-3-2.54 2.54 3c2.387 2.8193 3.46 3.607 3.46 2.54zm-70.497-3.2067c1.6585-2.1147 1.6113-2.1619-0.50341-0.50341-2.221 1.7418-2.9273 2.8367-1.8299 2.8367 0.27688 0 1.3269-1.05 2.3333-2.3333zm-32.62-4.6667c-0.36988-0.91667-0.67251-0.16667-0.67251 1.6667s0.30263 2.5833 0.67251 1.6667c0.36988-0.91667 0.36988-2.4167 0-3.3333zm67.867 1.5322c0.49894-0.8073-0.49338-2.7573-2.2052-4.3333l-3.1123-2.8655 2.5642 3.0814c2.1918 2.6339 2.2814 3.2602 0.61718 4.3129-1.1988 0.75824-1.3367 1.2394-0.359 1.2519 0.87339 0.0112 1.9962-0.6401 2.4951-1.4474zm28.584 1.0844c0-0.2109-3.15-3.3609-7-7l-7-6.6165 6.6166 7c6.1482 6.5045 7.3834 7.6115 7.3834 6.6165zm25.508-1.4059c-0.81676-0.98414-1.0402-2.2803-0.49658-2.8804 0.54362-0.6001 0.20929-0.64148-0.74299-0.09195-1.334 0.76979-1.373 1.431-0.17007 2.8804 0.85874 1.0347 1.8613 1.8813 2.228 1.8813 0.36667 0-1e-3 -0.8052-0.81836-1.7893zm-82.175-4.8773c2.8643-2.9333 4.9079-5.3333 4.5412-5.3333-0.36667 0-3.0102 2.4-5.8745 5.3333-2.8643 2.9333-4.9079 5.3333-4.5412 5.3333 0.36667 0 3.0102-2.4 5.8745-5.3333zm97.429-6.3491c-0.599-0.599-14.095 6.1263-14.095 7.0238 0 0.34634 3.2832-0.98053 7.2961-2.9486 4.0128-1.9681 7.0725-3.8019 6.7992-4.0752zm-78.683 1.6401c-1.4235-1.0767-3.2235-1.9363-4-1.9103-0.7765 0.025986 0.088173 0.90472 1.9215 1.9528 4.319 2.469 5.3705 2.4475 2.0785-0.0424zm129.25-4.6243c-1.3273-1.4667-3.0703-2.6193-3.8733-2.5614-0.83508 0.06021-0.74307 0.39431 0.21496 0.78055 0.92124 0.37141 1.2785 1.3167 0.79398 2.1007-0.50069 0.81015-0.25628 1.0394 0.56623 0.53104 0.79597-0.49194 1.8241-0.28464 2.2847 0.46065 0.46061 0.7453 1.1951 1.3551 1.6321 1.3551 0.43706 0-0.29134-1.2-1.6187-2.6667zm-176.67 0c1.1-0.71087 1.4-1.2925 0.66667-1.2925-0.73333 0-2.2333 0.58162-3.3333 1.2925-1.1 0.71088-1.4 1.2925-0.66667 1.2925 0.73333 0 2.2333-0.58162 3.3333-1.2925zm6.3056-2.1389c-0.44306-0.44306-1.5931-0.49042-2.5556-0.10527-1.0636 0.42564-0.7477 0.74158 0.80556 0.80556 1.4056 0.05789 2.1931-0.25724 1.75-0.70029zm56.361-0.52778c-1.1-0.71088-2.6-1.2925-3.3333-1.2925-0.73333 0-0.43333 0.58162 0.66667 1.2925 1.1 0.71087 2.6 1.2925 3.3333 1.2925 0.73334 0 0.43334-0.58162-0.66666-1.2925zm80.667 0c1.7583-0.75558 1.9854-1.1709 0.66667-1.2192-1.1-0.04032-2.9 0.50833-4 1.2192-2.4373 1.5751-0.33212 1.5751 3.3333 0zm26.972-0.80556c-0.44307-0.44306-1.5931-0.49042-2.5556-0.10527-1.0636 0.42564-0.74771 0.74158 0.80556 0.80556 1.4056 0.05789 2.193-0.25724 1.75-0.70029zm-153.97-1.4108c-0.91667-0.36988-2.4167-0.36988-3.3333 0-0.91667 0.36988-0.16667 0.67252 1.6667 0.67252 1.8333 0 2.5833-0.30263 1.6667-0.67252zm40.639 0.07748c-0.44306-0.44306-1.5931-0.49042-2.5556-0.10527-1.0636 0.42564-0.7477 0.74158 0.80556 0.80556 1.4056 0.05789 2.1931-0.25724 1.75-0.70029zm103.36-0.15897c-2.3833-0.29577-6.2833-0.29577-8.6667 0-2.3833 0.29577-0.43334 0.53776 4.3333 0.53776s6.7167-0.24199 4.3333-0.53776zm-135.97-1.2434c-0.90271-0.36523-2.7027-0.38746-4-0.0494-1.2973 0.33805-0.55871 0.63688 1.6413 0.66405 2.2 0.02717 3.2614-0.24942 2.3587-0.61465zm26.641-0.008458c-0.91667-0.36988-2.4167-0.36988-3.3333 0-0.91667 0.36988-0.16667 0.67251 1.6667 0.67251 1.8333 0 2.5833-0.30263 1.6667-0.67251zm-10.667-1.4148c-2.3833-0.29577-6.2833-0.29577-8.6667 0-2.3833 0.29577-0.43333 0.53776 4.3333 0.53776s6.7167-0.24199 4.3333-0.53776z" fill="#87b722"/>
<path d="m93.046 310.76c-12.671-1.7738-14.286-2.9776-23.872-17.79-14.792-22.859-15.408-25.03-11.926-42.011 1.4133-6.8929 2.0438-8.1012 3.5674-6.8368 1.4256 1.1832 1.8523 1.1156 1.8581-0.29405 0.0041-1.0064 0.64354-4.1206 1.421-6.9204 1.1684-4.2075 1.7453-4.8152 3.3259-3.5034 1.5603 1.2949 1.9123 1.0582 1.9123-1.2856 0-1.58 0.96069-5.1035 2.1349-7.8299l2.1349-4.9572 4.215 13.333 1.0275-8.4921c1.0035-8.2937 2.3158-11.665 3.385-8.6969 0.29272 0.81266 1.3915 2.6127 2.4417 4 1.761 2.3263 1.9144 2.1077 1.9723-2.8109 0.09689-8.2258 1.7615-9.5074 4.7717-3.6737l2.5836 5.007 0.39987-7.6667c0.42498-8.148 1.618-9.5494 3.9728-4.6667 1.2848 2.6641 1.457 2.3495 1.5371-2.8093 0.07049-4.5379 0.51862-5.6449 2.0475-5.0582 2.6555 1.019 2.9394 0.31985 4.5384-11.176 1.925-13.84 0.0275-26.027-6.0131-38.623l-4.7958-10-3.0201 10.324-3-5.3436c-1.65-2.939-3-6.3473-3-7.574 0-4.1221-2.4256-0.77951-3.3333 4.5936-0.49428 2.9256-1.3952 5.6262-2.0021 6.0013-1.5065 0.93107-6.4666-7.3452-7.5007-12.515-1.3144-6.5721-2.7561-6.0904-4.5408 1.5171-0.90278 3.8483-1.9452 7.5238-2.3165 8.1678-0.8024 1.3916-9.4067-11.858-10.501-16.171-1.2384-4.8799-2.827-3.4478-3.7685 3.3971-1.3169 9.5753-2.4648 10.62-6.0846 5.5361-1.6892-2.3722-4.4065-7.5986-6.0386-11.614-3.1685-7.796-3.5741-7.5403-5.2618 3.3168l-0.87606 5.6359-3.2259-3.8337c-1.7742-2.1086-4.3821-6.4161-5.7951-9.5724l-2.5693-5.7386-2.4262 4.2614c-1.3344 2.3438-2.8136 4.2652-3.2872 4.2698-1.84 0.018-9.5634-13.761-12.877-22.973-3.0216-8.4001-3.485-11.808-3.4927-25.685-0.015703-28.423 6.0505-47.706 17.568-55.845 10.606-7.4943 30.341-13.994 51.138-16.841 12.225-1.6739 22.899-0.75866 32.317 2.771 5.0291 1.8848 7.2422 2.1094 10 1.0146 1.9479-0.77324 6.3919-2.1828 9.8757-3.1323 8.9354-2.4354 19.763 0.13281 25.505 6.0498 2.3002 2.3701 3.5065 4.5363 2.6979 4.8446-2.836 1.0814-12.652 8.8012-12.009 9.4443 0.35831 0.35832 2.5552-0.70406 4.8819-2.3608 6.2277-4.4345 28.806-14.32 36.786-16.106 5.2638-1.178 9.8317-1.1762 19.061 0.00744 18.614 2.3871 23.614 4.7252 30.327 14.181 8.5148 11.994 17.921 31.259 18.719 38.339 0.5469 4.852 1.9947 7.7038 6.7229 13.242 15.526 18.186 28.221 36.634 39.583 57.524 6.2333 11.46 6.3953 12.043 5.6292 20.246-2.8165 30.162-20.781 83.275-32.794 96.957-3.1943 3.6381-10.704 8.1369-27.908 16.718-31.032 15.479-37.761 17.612-55.565 17.612h-13.971l-15.001 11.775c-25.909 20.337-25.46 20.107-40.554 20.792-7.2125 0.32736-16.543 0.1152-20.734-0.47154zm38.05-38.75c9.9512-6.5931 25.532-17.922 34.624-25.175l16.531-13.187 0.89105-12.676c2.8696-40.824 22.077-68.583 53.78-77.727l6.4116-1.8491-6 0.77496c-34.253 4.4242-56.445 33.2-60.688 78.694-0.74239 7.9598-1.4745 10.083-4.4339 12.859-4.9575 4.6503-34.366 26.442-50.75 37.607l-13.697 9.3333h-14.73c-13.324 0-14.235 0.14922-9.5486 1.5642 2.8496 0.8603 10.657 1.6103 17.349 1.6667l12.168 0.10247zm-38.217-5.0368c1.1276-0.71746 0.71562-3.4501-1.5229-10.102l-3.0686-9.1184-1.3818 4.4556c-3.0525 9.8428-3.189 12.829-0.65379 14.303 2.8744 1.672 4.542 1.7881 6.6271 0.46133zm-13.594-3.9756c-0.55215-2.0167-1.4073-7.8667-1.9004-13l-0.89651-9.3333-2.095 4.6667c-1.1522 2.5667-2.5072 7.1716-3.0111 10.233-0.75911 4.6125-0.44195 6.0406 1.8508 8.3333 4.1572 4.1571 7.3084 3.6887 6.0521-0.89975zm25.91 1.3333c2.6918-2.2237 2.7228-2.5212 0.66055-6.3333-1.1901-2.2-2.6235-5.5-3.1853-7.3333-1.006-3.2833-1.0538-3.2589-3.1795 1.6238-2.5711 5.9058-2.8134 12.556-0.49147 13.493 2.7376 1.1046 3.2475 0.98525 6.1957-1.4503zm13.411-8.7136c-0.03314-0.89087-1.506-4.3198-3.2731-7.6198l-3.2128-6-0.0603 8.1111c-0.0331 4.4611 0.31864 8.49 0.78172 8.9531 1.2215 1.2215 5.8354-1.5354 5.7644-3.4444zm11.76-6.6198c0.9673-1.1862 0.24872-3.5886-2.4925-8.3333l-3.8517-6.6667-0.0109 7.4444c-6e-3 4.0944 0.38912 7.8444 0.87801 8.3333 1.4063 1.4063 3.9958 1.0386 5.477-0.77777zm10.459-8.2649c0.40765-1.0624-0.8055-4.5124-2.6959-7.6667l-3.4371-5.7351-0.012 7.6667c-0.0107 6.8214 0.286 7.6667 2.6959 7.6667 1.4897 0 3.0421-0.8692 3.4497-1.9316zm9.5029-6.263c1.1483-1.1483 0.80043-2.8021-1.4-6.6564-3.4624-6.065-4.9346-6.5095-4.9096-1.4824 0.0417 8.4149 2.6584 11.79 6.3096 8.1388zm12.706-5.9506c0.44648-0.44648-0.80352-3.2609-2.7778-6.2543-3.2561-4.9369-3.6308-5.1586-4.0334-2.3859-0.7302 5.0286 0.94536 9.452 3.5804 9.452 1.3305 0 2.7843-0.36529 3.2308-0.81177zm-27.034-80.817c0-0.80919 1.9116-4.4502 4.248-8.0912 4.0826-6.3621 4.1505-6.6912 1.7452-8.4501-3.5787-2.6168-8.3367-2.2586-9.9462 0.74889-1.8292 3.4178-1.7545 11.141 0.14806 15.316 1.4708 3.228 3.805 3.5199 3.805 0.47592zm-16-4.0291c0-0.82518 1.2941-4.1736 2.8757-7.4408 3.3436-6.907 2.6169-9.0274-4.3089-12.572-4.2862-2.1938-4.6692-2.1987-6.2335-0.0785-3.0403 4.1208-0.99068 15.471 3.8463 21.299 1.5825 1.9068 3.8204 1.1995 3.8204-1.2074zm86.711-8.3423 0.0444-4 2.5769 3.0917c1.9584 2.3496 3.1246 2.7851 4.859 1.8145 1.9394-1.0853 1.4536-1.6998-3.2348-4.0917-3.0343-1.548-6.9369-2.8145-8.6724-2.8145-2.7477 0-3.0796 0.51696-2.5684 4 0.77718 5.2953-1.0237 5.0351-4.7278-0.68317-2.2743-3.5109-3.9391-4.6502-6.7952-4.6502h-3.7829l5.0018 5.4179c2.751 2.9798 5.7215 7.1554 6.6011 9.279l1.5993 3.8611 4.5274-3.6124c3.3047-2.6368 4.5393-4.6926 4.5718-7.6124zm-102.93-9.6614 4.4492-7.6088-4.8539-4.4482c-6.5035-5.96-10.555-5.4876-11.12 1.2965-0.38472 4.625 4.3066 18.456 6.2394 18.396 0.4597-0.0145 2.8379-3.4503 5.285-7.6351zm-16.814-22.709c-2.1463-3.2757-8.197-6.963-11.426-6.963-4.6799 0-4.7208 10.445-0.07745 19.763l3.4647 6.9528 5.0347-8.3265c4.7268-7.8172 4.9105-8.5161 3.0039-11.426zm-23.75 1.2783c4.7733-9.9869 4.0951-14.217-2.7369-17.072-2.8606-1.1952-6.3235-1.6438-8.6855-1.125-2.5303 0.55574-5.6335 0.05351-8.7204-1.4113-4.1872-1.9869-5.4835-2.0525-10.267-0.51898-3.0112 0.9653-7.7484 1.5805-10.527 1.3671-9.3546-0.71831-11.393 4.9853-5.664 15.852 2.7097 5.1399 3.2907 5.6177 4.0528 3.3333 2.0706-6.2063 5.1358-12.667 6.0099-12.667 0.51772 0 3.2196 3.6911 6.0042 8.2025l5.0629 8.2025 2.9842-5.8692c1.6413-3.228 4.1344-6.9091 5.5402-8.1801 2.4787-2.2411 2.6877-1.9888 6.9138 8.3473 2.3968 5.862 4.7781 10.398 5.2919 10.081 0.51376-0.31752 2.6473-4.1617 4.7412-8.5426zm31.703-33.711c3.5046-1.8756 7.2261-11.008 9.8728-24.227 1.208-6.0335 2.4345-11.231 2.7256-11.55 0.29109-0.31902 2.7682 1.5691 5.5048 4.1957 7.479 7.1787 22.434 17.923 30.311 21.777 4.1942 2.052 12.164 4.1971 19.925 5.363 7.114 1.0687 14.841 2.8656 17.171 3.993l4.2361 2.0499-3.1244-2.7138c-1.7184-1.4926-8.9333-4.5063-16.033-6.6972-15.342-4.7345-25.735-10.76-40.34-23.388-17.222-14.891-17.776-15.279-26.003-18.192-10.712-3.7936-26.561-4.6221-39.833-2.0824-11.947 2.286-34.328 9.9976-33.396 11.507 1.6589 2.6842 3.3563 19.075 2.1909 21.158-1.1278 2.0153-1.4209 1.8939-2.5514-1.0565-0.70246-1.8333-2.1608-5.4333-3.2407-8l-1.9635-4.6667-1.671 6c-2.3704 8.5112-3.8367 26.861-2.0854 26.096 14.133-6.1682 39.762-6.3622 56.05-0.42423 9.5001 3.4634 16.857 3.7471 22.255 0.85833zm-37.337-22.013c15.387-21.426 22.128-24.156 34.408-13.933 5.1401 4.2789 4.9453 6.2133-0.42027 4.1733-3.0424-1.1567-3.8085-0.83549-6.2776 2.6321-3.9937 5.6087-6.7036 6.7429-12.371 5.1779-4.3803-1.2095-5.3547-0.91858-11.35 3.3883-3.6068 2.5912-6.9734 4.7113-7.4814 4.7113-0.50798 0 1.0637-2.7672 3.4926-6.1494zm140.34 8.5194c1.1416-1.6298 2.0756-4.398 2.0756-6.1514 0-3.0441-0.28363-3.1455-6.2834-2.2458-3.4559 0.51824-8.5801 1.8612-11.387 2.9844l-5.1038 2.0421 6.3872 3.0618c8.1804 3.9214 11.728 3.998 14.312 0.30883zm-15.258-29.07c7.2343-2.4441 10.54-2.8063 20-2.192 6.2333 0.4048 12.833 1.1166 14.667 1.5819l3.3333 0.84586-3.1067-2.7348c-10.488-9.2322-33.321-7.028-58.461 5.6433-10.807 5.447-12.336 7.024-9.1034 9.3876 1.8972 1.3872 4.0196 0.7449 13.134-3.9746 5.9788-3.0961 14.771-6.9469 19.537-8.5572z" fill="#6f971e"/>
<path d="m93.046 310.76c-12.671-1.7738-14.286-2.9776-23.872-17.79-14.792-22.859-15.408-25.03-11.926-42.011 1.4133-6.8929 2.0438-8.1012 3.5674-6.8368 1.4256 1.1832 1.8523 1.1156 1.8581-0.29405 0.0041-1.0064 0.64354-4.1206 1.421-6.9204 1.1684-4.2075 1.7453-4.8152 3.3259-3.5034 1.5603 1.2949 1.9123 1.0582 1.9123-1.2856 0-1.58 0.96069-5.1035 2.1349-7.8299l2.1349-4.9572 4.215 13.333 1.0275-8.4921c1.0035-8.2937 2.3158-11.665 3.385-8.6969 0.29272 0.81266 1.3915 2.6127 2.4417 4 1.761 2.3263 1.9144 2.1077 1.9723-2.8109 0.09689-8.2258 1.7615-9.5074 4.7717-3.6737l2.5836 5.007 0.39987-7.6667c0.42498-8.148 1.618-9.5494 3.9728-4.6667 1.2848 2.6641 1.457 2.3495 1.5371-2.8093 0.07049-4.5379 0.51862-5.6449 2.0475-5.0582 2.6555 1.019 2.9394 0.31985 4.5384-11.176 1.925-13.84 0.0275-26.027-6.0131-38.623l-4.7958-10-3.0201 10.324-3-5.3436c-1.65-2.939-3-6.3473-3-7.574 0-4.1221-2.4256-0.77951-3.3333 4.5936-0.49428 2.9256-1.3952 5.6262-2.0021 6.0013-1.5065 0.93107-6.4666-7.3452-7.5007-12.515-1.3144-6.5721-2.7561-6.0904-4.5408 1.5171-0.90278 3.8483-1.9452 7.5238-2.3165 8.1678-0.8024 1.3916-9.4067-11.858-10.501-16.171-1.2384-4.8799-2.827-3.4478-3.7685 3.3971-1.3169 9.5753-2.4648 10.62-6.0846 5.5361-1.6892-2.3722-4.4065-7.5986-6.0386-11.614-3.1685-7.796-3.5741-7.5403-5.2618 3.3168l-0.87606 5.6359-3.2259-3.8337c-1.7742-2.1086-4.3821-6.4161-5.7951-9.5724l-2.5693-5.7386-2.4262 4.2614c-1.3344 2.3438-2.8136 4.2652-3.2872 4.2698-1.84 0.018-9.5634-13.761-12.877-22.973-3.0216-8.4001-3.485-11.808-3.4927-25.685-0.015703-28.423 6.0505-47.706 17.568-55.845 10.606-7.4943 30.341-13.994 51.138-16.841 12.225-1.6739 22.899-0.75866 32.317 2.771 5.0291 1.8848 7.2422 2.1094 10 1.0146 1.9479-0.77324 6.3919-2.1828 9.8757-3.1323 8.9354-2.4354 19.763 0.13281 25.505 6.0498 2.3002 2.3701 3.5065 4.5363 2.6979 4.8446-2.836 1.0814-12.652 8.8012-12.009 9.4443 0.35831 0.35832 2.5552-0.70406 4.8819-2.3608 6.2277-4.4345 28.806-14.32 36.786-16.106 5.2638-1.178 9.8317-1.1762 19.061 0.00744 18.614 2.3871 23.614 4.7252 30.327 14.181 8.5148 11.994 17.921 31.259 18.719 38.339 0.5469 4.852 1.9947 7.7038 6.7229 13.242 15.526 18.186 28.221 36.634 39.583 57.524 6.2333 11.46 6.3953 12.043 5.6292 20.246-2.8165 30.162-20.781 83.275-32.794 96.957-3.1943 3.6381-10.704 8.1369-27.908 16.718-31.032 15.479-37.761 17.612-55.565 17.612h-13.971l-15.001 11.775c-25.909 20.337-25.46 20.107-40.554 20.792-7.2125 0.32736-16.543 0.1152-20.734-0.47154zm31.987-33.969c19.566-12.406 54.307-38.756 57.778-43.823 0.44662-0.65203 1.1601-6.9869 1.5856-14.078 2.3953-39.921 22.632-67.572 55.236-75.471 7.615-1.845 7.64-1.8668 2.2751-1.9766-2.9836-0.0611-8.6836 0.84615-12.667 2.0161-30.08 8.8354-48.394 34.814-52.546 74.539-0.45991 4.4-1.1195 9.3636-1.4658 11.03-0.65978 3.1758-32.948 28.21-55.709 43.194-12.793 8.4217-14.125 8.7354-33.521 7.8976-5.1333-0.22175-8.9015 0.042-8.3737 0.58614 1.8882 1.9467 15.207 4.4009 24.489 4.5123 9.396 0.1128 9.5229 0.0661 22.919-8.4273zm-32.155-9.8169c1.1276-0.71746 0.71562-3.4501-1.5229-10.102l-3.0686-9.1184-1.3818 4.4556c-3.0525 9.8428-3.189 12.829-0.65379 14.303 2.8744 1.672 4.542 1.7881 6.6271 0.46133zm-13.594-3.9756c-0.55215-2.0167-1.4073-7.8667-1.9004-13l-0.89651-9.3333-2.095 4.6667c-1.1522 2.5667-2.5072 7.1716-3.0111 10.233-0.75911 4.6125-0.44195 6.0406 1.8508 8.3333 4.1572 4.1571 7.3084 3.6887 6.0521-0.89975zm25.91 1.3333c2.6918-2.2237 2.7228-2.5212 0.66055-6.3333-1.1901-2.2-2.6235-5.5-3.1853-7.3333-1.006-3.2833-1.0538-3.2589-3.1795 1.6238-2.5711 5.9058-2.8134 12.556-0.49147 13.493 2.7376 1.1046 3.2475 0.98525 6.1957-1.4503zm13.411-8.7136c-0.03314-0.89087-1.506-4.3198-3.2731-7.6198l-3.2128-6-0.0603 8.1111c-0.0331 4.4611 0.31864 8.49 0.78172 8.9531 1.2215 1.2215 5.8354-1.5354 5.7644-3.4444zm11.76-6.6198c0.9673-1.1862 0.24872-3.5886-2.4925-8.3333l-3.8517-6.6667-0.0109 7.4444c-6e-3 4.0944 0.38912 7.8444 0.87801 8.3333 1.4063 1.4063 3.9958 1.0386 5.477-0.77777zm10.459-8.2649c0.40765-1.0624-0.8055-4.5124-2.6959-7.6667l-3.4371-5.7351-0.012 7.6667c-0.0107 6.8214 0.286 7.6667 2.6959 7.6667 1.4897 0 3.0421-0.8692 3.4497-1.9316zm9.5029-6.263c1.1483-1.1483 0.80043-2.8021-1.4-6.6564-3.4624-6.065-4.9346-6.5095-4.9096-1.4824 0.0417 8.4149 2.6584 11.79 6.3096 8.1388zm12.706-5.9506c0.44648-0.44648-0.80352-3.2609-2.7778-6.2543-3.2561-4.9369-3.6308-5.1586-4.0334-2.3859-0.7302 5.0286 0.94536 9.452 3.5804 9.452 1.3305 0 2.7843-0.36529 3.2308-0.81177zm-27.034-80.817c0-0.80919 1.9116-4.4502 4.248-8.0912 4.0826-6.3621 4.1505-6.6912 1.7452-8.4501-3.5787-2.6168-8.3367-2.2586-9.9462 0.74889-1.8292 3.4178-1.7545 11.141 0.14806 15.316 1.4708 3.228 3.805 3.5199 3.805 0.47592zm-16-4.0291c0-0.82518 1.2941-4.1736 2.8757-7.4408 3.3436-6.907 2.6169-9.0274-4.3089-12.572-4.2862-2.1938-4.6692-2.1987-6.2335-0.0785-3.0403 4.1208-0.99068 15.471 3.8463 21.299 1.5825 1.9068 3.8204 1.1995 3.8204-1.2074zm86.711-8.3423 0.0444-4 2.5769 3.0917c1.9584 2.3496 3.1246 2.7851 4.859 1.8145 1.9394-1.0853 1.4536-1.6998-3.2348-4.0917-3.0343-1.548-6.9369-2.8145-8.6724-2.8145-2.7477 0-3.0796 0.51696-2.5684 4 0.77718 5.2953-1.0237 5.0351-4.7278-0.68317-2.2743-3.5109-3.9391-4.6502-6.7952-4.6502h-3.7829l5.0018 5.4179c2.751 2.9798 5.7215 7.1554 6.6011 9.279l1.5993 3.8611 4.5274-3.6124c3.3047-2.6368 4.5393-4.6926 4.5718-7.6124zm-102.93-9.6614 4.4492-7.6088-4.8539-4.4482c-6.5035-5.96-10.555-5.4876-11.12 1.2965-0.38472 4.625 4.3066 18.456 6.2394 18.396 0.4597-0.0145 2.8379-3.4503 5.285-7.6351zm-16.814-22.709c-2.1463-3.2757-8.197-6.963-11.426-6.963-4.6799 0-4.7208 10.445-0.07745 19.763l3.4647 6.9528 5.0347-8.3265c4.7268-7.8172 4.9105-8.5161 3.0039-11.426zm-23.75 1.2783c4.7733-9.9869 4.0951-14.217-2.7369-17.072-2.8606-1.1952-6.3235-1.6438-8.6855-1.125-2.5303 0.55574-5.6335 0.05351-8.7204-1.4113-4.1872-1.9869-5.4835-2.0525-10.267-0.51898-3.0112 0.9653-7.7484 1.5805-10.527 1.3671-9.3546-0.71831-11.393 4.9853-5.664 15.852 2.7097 5.1399 3.2907 5.6177 4.0528 3.3333 2.0706-6.2063 5.1358-12.667 6.0099-12.667 0.51772 0 3.2196 3.6911 6.0042 8.2025l5.0629 8.2025 2.9842-5.8692c1.6413-3.228 4.1344-6.9091 5.5402-8.1801 2.4787-2.2411 2.6877-1.9888 6.9138 8.3473 2.3968 5.862 4.7781 10.398 5.2919 10.081 0.51376-0.31752 2.6473-4.1617 4.7412-8.5426zm34.848-35.813c2.9257-3.8776 7.2789-17.765 8.1578-26.024l0.80821-7.5954 8.571 7.2713c17.851 15.144 30.682 22.377 42.397 23.898 12.595 1.6361 21.338 3.6016 24.667 5.5449 2.3418 1.3673 1.9978 0.76753-1.1563-2.0163-2.7873-2.4601-7.843-4.8527-13.333-6.31-17.704-4.699-28.435-11.007-47.34-27.827-17.544-15.609-26.762-18.865-50.031-17.67-19.671 1.0098-46.592 9.5257-44.766 14.16 0.4639 1.1769 1.1184 6.6397 1.4544 12.14l0.61092 10-3.7869-7.9695c-2.0828-4.3832-4.1883-7.3199-4.6789-6.5261-1.0941 1.7704-4.9729 23.632-4.9729 28.029 0 2.7998 0.44257 3.077 3.6667 2.2968 2.0167-0.48802 5.0928-1.4135 6.8358-2.0567 10.726-3.9578 33.295-2.3878 50.692 3.5265 7.9124 2.6898 9.3915 2.8191 14.588 1.2754 3.1808-0.94484 6.6079-2.8108 7.6158-4.1466zm-43.399-14.8c0-1.5491 14.327-19.285 17.717-21.933 5.6295-4.3969 14.262-2.3131 20.949 5.0572 3.4383 3.7892 3.288 3.8337-3.5036 1.0385-0.82698-0.34036-3.3361 1.6044-5.5759 4.3216-3.9149 4.7494-4.3146 4.9072-10.339 4.0815-5.7045-0.78189-6.8491-0.44057-12.757 3.8041-3.5699 2.5647-6.4906 4.1982-6.4906 3.63zm143.26 3.4075c1.1416-1.6298 2.0756-4.398 2.0756-6.1514 0-3.0441-0.28363-3.1455-6.2834-2.2458-3.4559 0.51824-8.5801 1.8612-11.387 2.9844l-5.1038 2.0421 6.3872 3.0618c8.1804 3.9214 11.728 3.998 14.312 0.30883zm-31.065-21.454c7.0726-3.4573 16.864-7.2743 21.759-8.4823 8.0458-1.9855 9.9813-2.0077 20.169-0.23113 11.854 2.0672 13.178 1.3843 6.6996-3.4552-3.2016-2.3916-5.6106-2.7478-18.583-2.7478-13.734 0-15.742 0.33999-25.571 4.3299-5.8667 2.3814-13.934 6.2107-17.928 8.5095l-7.2612 4.1796 3.1298 2.5343c1.7214 1.3939 3.4889 2.3351 3.9279 2.0917 0.43899-0.24343 6.5848-3.2713 13.657-6.7286z" fill="#aa3b3b"/>
<path d="m93.046 310.76c-12.671-1.7738-14.286-2.9776-23.872-17.79-14.792-22.859-15.408-25.03-11.926-42.011 1.4133-6.8929 2.0438-8.1012 3.5674-6.8368 1.4256 1.1832 1.8523 1.1156 1.8581-0.29405 0.0041-1.0064 0.64354-4.1206 1.421-6.9204 1.1684-4.2075 1.7453-4.8152 3.3259-3.5034 1.5603 1.2949 1.9123 1.0582 1.9123-1.2856 0-1.58 0.96069-5.1035 2.1349-7.8299l2.1349-4.9572 4.215 13.333 1.0275-8.4921c1.0035-8.2937 2.3158-11.665 3.385-8.6969 0.29272 0.81266 1.3915 2.6127 2.4417 4 1.761 2.3263 1.9144 2.1077 1.9723-2.8109 0.09689-8.2258 1.7615-9.5074 4.7717-3.6737l2.5836 5.007 0.39987-7.6667c0.42498-8.148 1.618-9.5494 3.9728-4.6667 1.2848 2.6641 1.457 2.3495 1.5371-2.8093 0.07049-4.5379 0.51862-5.6449 2.0475-5.0582 2.6555 1.019 2.9394 0.31985 4.5384-11.176 1.925-13.84 0.0275-26.027-6.0131-38.623l-4.7958-10-3.0201 10.324-3-5.3436c-1.65-2.939-3-6.3473-3-7.574 0-4.1221-2.4256-0.77951-3.3333 4.5936-0.49428 2.9256-1.3952 5.6262-2.0021 6.0013-1.5065 0.93107-6.4666-7.3452-7.5007-12.515-1.3144-6.5721-2.7561-6.0904-4.5408 1.5171-0.90278 3.8483-1.9452 7.5238-2.3165 8.1678-0.8024 1.3916-9.4067-11.858-10.501-16.171-1.2384-4.8799-2.827-3.4478-3.7685 3.3971-1.3169 9.5753-2.4648 10.62-6.0846 5.5361-1.6892-2.3722-4.4065-7.5986-6.0386-11.614-3.1685-7.796-3.5741-7.5403-5.2618 3.3168l-0.87606 5.6359-3.2259-3.8337c-1.7742-2.1086-4.3821-6.4161-5.7951-9.5724l-2.5693-5.7386-2.4262 4.2614c-1.3344 2.3438-2.8136 4.2652-3.2872 4.2698-1.84 0.018-9.5634-13.761-12.877-22.973-3.0216-8.4001-3.485-11.808-3.4927-25.685-0.015703-28.423 6.0505-47.706 17.568-55.845 10.606-7.4943 30.341-13.994 51.138-16.841 12.225-1.6739 22.899-0.75866 32.317 2.771 5.0291 1.8848 7.2422 2.1094 10 1.0146 1.9479-0.77324 6.3919-2.1828 9.8757-3.1323 8.9354-2.4354 19.763 0.13281 25.505 6.0498 2.3002 2.3701 3.5065 4.5363 2.6979 4.8446-2.836 1.0814-12.652 8.8012-12.009 9.4443 0.35831 0.35832 2.5552-0.70406 4.8819-2.3608 6.2277-4.4345 28.806-14.32 36.786-16.106 5.2638-1.178 9.8317-1.1762 19.061 0.00744 18.614 2.3871 23.614 4.7252 30.327 14.181 8.5148 11.994 17.921 31.259 18.719 38.339 0.5469 4.852 1.9947 7.7038 6.7229 13.242 15.526 18.186 28.221 36.634 39.583 57.524 6.2333 11.46 6.3953 12.043 5.6292 20.246-2.8165 30.162-20.781 83.275-32.794 96.957-3.1943 3.6381-10.704 8.1369-27.908 16.718-31.032 15.479-37.761 17.612-55.565 17.612h-13.971l-15.001 11.775c-25.909 20.337-25.46 20.107-40.554 20.792-7.2125 0.32736-16.543 0.1152-20.734-0.47154zm31.987-33.969c19.566-12.406 54.307-38.756 57.778-43.823 0.44662-0.65203 1.1601-6.9869 1.5856-14.078 2.3953-39.921 22.632-67.572 55.236-75.471 7.615-1.845 7.64-1.8668 2.2751-1.9766-2.9836-0.0611-8.6836 0.84615-12.667 2.0161-30.08 8.8354-48.394 34.814-52.546 74.539-0.45991 4.4-1.1195 9.3636-1.4658 11.03-0.65978 3.1758-32.948 28.21-55.709 43.194-12.793 8.4217-14.125 8.7354-33.521 7.8976-5.1333-0.22175-8.9015 0.042-8.3737 0.58614 1.8882 1.9467 15.207 4.4009 24.489 4.5123 9.396 0.1128 9.5229 0.0661 22.919-8.4273zm-32.155-9.8169c1.1276-0.71746 0.71562-3.4501-1.5229-10.102l-3.0686-9.1184-1.3818 4.4556c-3.0525 9.8428-3.189 12.829-0.65379 14.303 2.8744 1.672 4.542 1.7881 6.6271 0.46133zm-13.594-3.9756c-0.55215-2.0167-1.4073-7.8667-1.9004-13l-0.89651-9.3333-2.095 4.6667c-1.1522 2.5667-2.5072 7.1716-3.0111 10.233-0.75911 4.6125-0.44195 6.0406 1.8508 8.3333 4.1572 4.1571 7.3084 3.6887 6.0521-0.89975zm25.91 1.3333c2.6918-2.2237 2.7228-2.5212 0.66055-6.3333-1.1901-2.2-2.6235-5.5-3.1853-7.3333-1.006-3.2833-1.0538-3.2589-3.1795 1.6238-2.5711 5.9058-2.8134 12.556-0.49147 13.493 2.7376 1.1046 3.2475 0.98525 6.1957-1.4503zm13.411-8.7136c-0.03314-0.89087-1.506-4.3198-3.2731-7.6198l-3.2128-6-0.0603 8.1111c-0.0331 4.4611 0.31864 8.49 0.78172 8.9531 1.2215 1.2215 5.8354-1.5354 5.7644-3.4444zm11.76-6.6198c0.9673-1.1862 0.24872-3.5886-2.4925-8.3333l-3.8517-6.6667-0.0109 7.4444c-6e-3 4.0944 0.38912 7.8444 0.87801 8.3333 1.4063 1.4063 3.9958 1.0386 5.477-0.77777zm10.459-8.2649c0.40765-1.0624-0.8055-4.5124-2.6959-7.6667l-3.4371-5.7351-0.012 7.6667c-0.0107 6.8214 0.286 7.6667 2.6959 7.6667 1.4897 0 3.0421-0.8692 3.4497-1.9316zm-28.202-8.7351c1.0409 0 2.7475 1.2206 3.7924 2.7124 1.8355 2.6205 1.9286 2.5684 2.7502-1.5396 0.87988-4.3994 3.0312-7.8394 4.9026-7.8394 0.59116 0 2.0177 0.94286 3.1701 2.0952 1.9048 1.9048 2.0952 1.797 2.0952-1.1856 0-1.8045 1.1613-4.6973 2.5806-6.4286 2.4506-2.989 2.6991-3.0312 4.9299-0.83686 2.233 2.1965 2.432 2.1141 4.0216-1.6667 2.0502-4.8759 5.3329-5.1306 7.4087-0.57485l1.5504 3.4026 2.7544-5.736c3.493-7.274 6.5344-7.956 9.598-2.1522l2.3312 4.4163 1.7073-9.967c3.0193-17.627 9.3725-35.511 14.813-41.7 1.8576-2.113 1.8346-2.3333-0.243-2.3333-6.8721 0-13.379 6.4776-19.42 19.333-4.917 10.463-12.99 22.82-14.15 21.66-0.32336-0.32336 0.90628-3.2613 2.7325-6.5288 4.2234-7.5565 11.594-25.367 10.819-26.142-0.32378-0.32376-2.7147 0.11307-5.3133 0.97059-6.4366 2.1243-14.486 11.664-18.679 22.137-6.2084 15.508-13.468 24.92-28.365 36.774-8.3478 6.6426-8.4822 6.8482-5.4837 8.391 2.7933 1.4372 3.2897 1.178 5.439-2.8402 1.3008-2.432 3.2168-4.4218 4.2577-4.4218zm37.705 2.4722c1.1483-1.1483 0.80043-2.8021-1.4-6.6564-3.4624-6.065-4.9346-6.5095-4.9096-1.4824 0.0417 8.4149 2.6584 11.79 6.3096 8.1388zm12.706-5.9506c0.44648-0.44648-0.80352-3.2609-2.7778-6.2543-3.2561-4.9369-3.6308-5.1586-4.0334-2.3859-0.7302 5.0286 0.94536 9.452 3.5804 9.452 1.3305 0 2.7843-0.36529 3.2308-0.81177zm-27.034-80.817c0-0.80919 1.9116-4.4502 4.248-8.0912 4.0826-6.3621 4.1505-6.6912 1.7452-8.4501-3.5787-2.6168-8.3367-2.2586-9.9462 0.74889-1.8292 3.4178-1.7545 11.141 0.14806 15.316 1.4708 3.228 3.805 3.5199 3.805 0.47592zm-16-4.0291c0-0.82518 1.2941-4.1736 2.8757-7.4408 3.3436-6.907 2.6169-9.0274-4.3089-12.572-4.2862-2.1938-4.6692-2.1987-6.2335-0.0785-3.0403 4.1208-0.99068 15.471 3.8463 21.299 1.5825 1.9068 3.8204 1.1995 3.8204-1.2074zm86.65-6.6756c0.0189-4.2158 1.0194-4.6282 3.3837-1.3949 1.3323 1.822 2.2853 1.9932 4.8136 0.86449 3.1033-1.3853 3.0692-1.4495-2.1808-4.1091-2.9333-1.486-7.3609-3.1397-9.8391-3.675-4.4419-0.95939-4.4972-0.91442-3.8976 3.1706 0.3345 2.2791 0.39376 4.1438 0.13174 4.1438-0.26207 0-2.3203-2.1-4.5739-4.6667-2.542-2.8952-5.3103-4.6667-7.2926-4.6667-4.3157 0-4.0291 1.3353 1.42 6.6168 2.5384 2.4603 5.5618 6.4681 6.7188 8.9063l2.1036 4.4331 4.598-2.9781c3.3932-2.1977 4.6023-3.9388 4.6145-6.6447zm-102.87-11.328 4.4492-7.6088-4.8539-4.4482c-6.5035-5.96-10.555-5.4876-11.12 1.2965-0.38472 4.625 4.3066 18.456 6.2394 18.396 0.4597-0.0145 2.8379-3.4503 5.285-7.6351zm-16.814-22.709c-2.1463-3.2757-8.197-6.963-11.426-6.963-4.6799 0-4.7208 10.445-0.07745 19.763l3.4647 6.9528 5.0347-8.3265c4.7268-7.8172 4.9105-8.5161 3.0039-11.426zm-23.75 1.2783c4.7733-9.9869 4.0951-14.217-2.7369-17.072-2.8606-1.1952-6.3235-1.6438-8.6855-1.125-2.5303 0.55574-5.6335 0.05351-8.7204-1.4113-4.1872-1.9869-5.4835-2.0525-10.267-0.51898-3.0112 0.9653-7.7484 1.5805-10.527 1.3671-9.3546-0.71831-11.393 4.9853-5.664 15.852 2.7097 5.1399 3.2907 5.6177 4.0528 3.3333 2.0706-6.2063 5.1358-12.667 6.0099-12.667 0.51772 0 3.2196 3.6911 6.0042 8.2025l5.0629 8.2025 2.9842-5.8692c1.6413-3.228 4.1344-6.9091 5.5402-8.1801 2.4787-2.2411 2.6877-1.9888 6.9138 8.3473 2.3968 5.862 4.7781 10.398 5.2919 10.081 0.51376-0.31752 2.6473-4.1617 4.7412-8.5426zm34.848-35.813c2.9257-3.8776 7.2789-17.765 8.1578-26.024l0.80821-7.5954 8.571 7.2713c17.851 15.144 30.682 22.377 42.397 23.898 12.595 1.6361 21.338 3.6016 24.667 5.5449 2.3418 1.3673 1.9978 0.76753-1.1563-2.0163-2.7873-2.4601-7.843-4.8527-13.333-6.31-17.704-4.699-28.435-11.007-47.34-27.827-17.544-15.609-26.762-18.865-50.031-17.67-19.671 1.0098-46.592 9.5257-44.766 14.16 0.4639 1.1769 1.1184 6.6397 1.4544 12.14l0.61092 10-3.7869-7.9695c-2.0828-4.3832-4.1883-7.3199-4.6789-6.5261-1.0941 1.7704-4.9729 23.632-4.9729 28.029 0 2.7998 0.44257 3.077 3.6667 2.2968 2.0167-0.48802 5.0928-1.4135 6.8358-2.0567 10.726-3.9578 33.295-2.3878 50.692 3.5265 7.9124 2.6898 9.3915 2.8191 14.588 1.2754 3.1808-0.94484 6.6079-2.8108 7.6158-4.1466zm-43.399-14.8c0-1.5491 14.327-19.285 17.717-21.933 5.6295-4.3969 14.262-2.3131 20.949 5.0572 3.4383 3.7892 3.288 3.8337-3.5036 1.0385-0.82698-0.34036-3.3361 1.6044-5.5759 4.3216-3.9149 4.7494-4.3146 4.9072-10.339 4.0815-5.7045-0.78189-6.8491-0.44057-12.757 3.8041-3.5699 2.5647-6.4906 4.1982-6.4906 3.63zm143.26 3.4075c1.1416-1.6298 2.0756-4.398 2.0756-6.1514 0-3.0441-0.28363-3.1455-6.2834-2.2458-3.4559 0.51824-8.5801 1.8612-11.387 2.9844l-5.1038 2.0421 6.3872 3.0618c8.1804 3.9214 11.728 3.998 14.312 0.30883zm-31.065-21.454c7.0726-3.4573 16.864-7.2743 21.759-8.4823 8.0458-1.9855 9.9813-2.0077 20.169-0.23113 11.854 2.0672 13.178 1.3843 6.6996-3.4552-3.2016-2.3916-5.6106-2.7478-18.583-2.7478-13.734 0-15.742 0.33999-25.571 4.3299-5.8667 2.3814-13.934 6.2107-17.928 8.5095l-7.2612 4.1796 3.1298 2.5343c1.7214 1.3939 3.4889 2.3351 3.9279 2.0917 0.43899-0.24343 6.5848-3.2713 13.657-6.7286z" fill="#5e5e5e"/>
<path d="m85.57 309.09c-6.3831-1.4267-7.9298-3.2166-21.904-25.35-6.8227-10.807-7.6572-12.892-7.5811-18.943 0.12903-10.248 2.9904-22.524 4.823-20.691 1.0955 1.0956 1.7261 0.30994 2.3894-2.9768 1.8786-9.3087 2.0544-9.6154 3.9933-6.9638 1.5325 2.0958 1.8205 1.7562 2.644-3.1183 0.50832-3.0087 1.6954-6.525 2.638-7.8141 1.537-2.102 1.8075-1.8444 2.6219 2.4969 1.4305 7.6253 3.0534 6.918 4.0351-1.7584 0.99477-8.7926 2.1359-9.8316 4.7305-4.3074 1.9182 4.084 2.125 3.7485 3.3693-5.4661l0.87314-6.4661 5.7968 11.599 0.66667-8.6667c0.60591-7.8768 0.82284-8.3932 2.3802-5.6667 2.6063 4.5628 3.7482 3.6078 3.1527-2.6368-0.46913-4.9193-0.27995-5.423 1.4861-3.9573 1.7116 1.4205 2.248 1.0359 3.4786-2.4941 5.5108-15.808 1.464-42.801-8.2825-55.245-2.0255-2.586-2.117-2.529-3.029 1.8856l-0.9404 4.5523-2.4136-2.9807c-1.3275-1.6394-2.8048-5.0659-3.2829-7.6144-1.0674-5.6898-1.8741-5.0003-4.5552 3.8935l-2.0892 6.9305-3.619-7.2618c-1.9905-3.994-3.619-8.644-3.619-10.333 0-5.688-2.3646-3.1317-4.2504 4.5951-1.0291 4.2167-2.4438 7.6063-3.1437 7.5325-0.6999-0.0738-3.3726-4.382-5.9392-9.5738s-5.0487-9.4814-5.5157-9.5325-1.6034 3.905-2.5254 8.7914c-1.5407 8.1653-1.8314 8.6779-3.5921 6.3333-3.2829-4.3714-9.6991-17.691-9.7205-20.18-0.03911-4.5429-2.4212 1.1452-3.3707 8.0487-0.87459 6.3591-0.97051 6.4761-3.3312 4.0638-1.3369-1.3661-3.9027-5.4173-5.7019-9.0027l-3.2712-6.5189-2.4154 3.8522c-1.3285 2.1187-2.6032 4.1084-2.8328 4.4216-1.4765 2.0144-11.36-16.522-14.204-26.639-3.1919-11.356-3.8313-20.924-2.2672-33.93 3.8536-32.045 9.5029-41.905 28.548-49.828 16.221-6.7479 29.553-9.7503 46.575-10.489 13.62-0.59083 16.817-0.30714 24.042 2.1336l8.3338 2.815 6.9721-2.6492c11.627-4.4178 23.59-2.9414 31.19 3.849l4.104 3.6669-6.9723 5.0091c-3.8348 2.755-6.7635 5.2164-6.5084 5.4697 0.25518 0.25332 7.664-3.0899 16.464-7.4293 24.461-12.062 30.96-13.171 52.667-8.9861 13.459 2.5949 16.604 4.5471 23.227 14.418 8.2168 12.247 16.827 30.481 17.742 37.573 0.54214 4.2013 2.1281 7.2958 5.8055 11.327 13.21 14.482 32.712 43.378 42.578 63.086l4.3214 8.6324-1.6483 11.368c-5.5782 38.469-23.894 87.093-36.152 95.972-7.9068 5.7276-44.196 23.416-56.109 27.349-8.2477 2.723-12.865 3.3792-23.777 3.3792h-13.542l-14.223 11.118c-7.8226 6.1151-17.44 13.315-21.372 16l-7.1496 4.8816-17.517-0.14279c-9.6344-0.0785-20.11-0.72241-23.28-1.4308zm39.463-32.3c19.566-12.406 54.307-38.756 57.778-43.823 0.44662-0.65203 1.1601-6.9869 1.5856-14.078 2.3953-39.921 22.632-67.572 55.236-75.471 7.615-1.845 7.64-1.8668 2.2751-1.9766-2.9836-0.0611-8.6836 0.84615-12.667 2.0161-30.08 8.8354-48.394 34.814-52.546 74.539-0.45991 4.4-1.1195 9.3636-1.4658 11.03-0.65978 3.1758-32.948 28.21-55.709 43.194-12.793 8.4217-14.125 8.7354-33.521 7.8976-5.1333-0.22175-8.9015 0.042-8.3737 0.58614 1.8882 1.9467 15.207 4.4009 24.489 4.5123 9.396 0.1128 9.5229 0.0661 22.919-8.4273zm-30.962-10.242c0.4926-0.79703-0.02848-3.647-1.158-6.3333-1.1295-2.6863-2.446-6.6836-2.9257-8.8829l-0.87209-3.9987-1.8094 3.332c-2.8023 5.1604-3.8045 13.125-1.9348 15.378 1.8949 2.2832 7.4033 2.6028 8.7 0.50472zm-14.243-3.8037c-0.7515-2.1558-1.7909-8.0058-2.3097-13l-0.94334-9.0804-2.31 4.3104c-3.6957 6.8961-4.4396 15.884-1.5765 19.047 1.3152 1.4532 3.767 2.6423 5.4486 2.6423 2.8041 0 2.9441-0.3247 1.691-3.9196zm26.25 2.0123c2.5509-1.8798 2.5455-1.9901-0.37658-7.6667-1.6306-3.1677-3.1903-6.9594-3.4659-8.4261-0.40197-2.1388-0.93678-1.6855-2.7019 2.2905-2.2241 5.0099-2.9477 13.185-1.3118 14.821 1.4755 1.4756 5.1116 1.0042 7.8563-1.0184zm11.427-6.915c2.2778-2.0614 2.2301-2.4548-1.0904-9-2.9942-5.9019-3.6161-6.4772-4.5166-4.1777-1.5126 3.8628-1.4437 9.7791 0.14858 12.754 1.6788 3.1369 2.3983 3.1927 5.4584 0.4234zm11.916-7.2246c3.328-1.7811 3.2687-2.3832-0.98259-9.9896-3.3474-5.9892-3.6296-6.1886-4.6923-3.3158-1.4642 3.958 0.30379 14.686 2.4202 14.686 0.3716 0 1.8362-0.62111 3.2546-1.3802zm12.441-10.782c-0.0761-0.27722-1.6365-3.4519-3.4676-7.0548-3.3051-6.5033-3.336-6.5238-4.2633-2.8289-0.85683 3.4139-0.052 10.52 1.4864 13.125 0.58725 0.99416 6.5566-2.104 6.2444-3.2409zm-29.239-7.8374c1.0409 0 2.7475 1.2206 3.7924 2.7124 1.8355 2.6205 1.9286 2.5684 2.7502-1.5396 0.87988-4.3994 3.0312-7.8394 4.9026-7.8394 0.59116 0 2.0177 0.94286 3.1701 2.0952 1.9048 1.9048 2.0952 1.797 2.0952-1.1856 0-1.8045 1.1613-4.6973 2.5806-6.4286 2.4506-2.989 2.6991-3.0312 4.9299-0.83686 2.233 2.1965 2.432 2.1141 4.0216-1.6667 2.0502-4.8759 5.3329-5.1306 7.4087-0.57485l1.5504 3.4026 2.7544-5.736c3.493-7.274 6.5344-7.956 9.598-2.1522l2.3312 4.4163 1.7073-9.967c3.0193-17.627 9.3725-35.511 14.813-41.7 1.8576-2.113 1.8346-2.3333-0.243-2.3333-6.8721 0-13.379 6.4776-19.42 19.333-4.917 10.463-12.99 22.82-14.15 21.66-0.32336-0.32336 0.90628-3.2613 2.7325-6.5288 4.2234-7.5565 11.594-25.367 10.819-26.142-0.32378-0.32376-2.7147 0.11307-5.3133 0.97059-6.4366 2.1243-14.486 11.664-18.679 22.137-6.2084 15.508-13.468 24.92-28.365 36.774-8.3478 6.6426-8.4822 6.8482-5.4837 8.391 2.7933 1.4372 3.2897 1.178 5.439-2.8402 1.3008-2.432 3.2168-4.4218 4.2577-4.4218zm38.044 2.6842c1.6408-1.046 1.6989-1.7008 0.32365-3.6462-0.92199-1.3042-2.3683-3.7213-3.214-5.3713-2.2201-4.3314-3.7763-3.6895-3.7763 1.5576 0 8.1416 2.0314 10.415 6.6667 7.4599zm13.333-6.0867c0-1.5279-6.0435-11.244-7-11.254-1.237-0.0133-1.336 9.876-0.11107 11.101 1.0685 1.0685 7.1111 1.1985 7.1111 0.15305zm-27.512-81.028c0.42758-1.7036 2.2926-5.3302 4.1445-8.0592 4.3377-6.392 4.2426-8.2773-0.5009-9.9309-7.9746-2.78-12.641 5.7615-8.628 15.792 2.4121 6.0284 3.8626 6.6681 4.9844 2.1983zm-13.384-21.128c-4.0735-4.2677-9.7033-6.0221-11.291-3.5185-2.238 3.5287-1.1356 12.071 2.3949 18.557l3.5418 6.5075 8.7512-17.987zm83.546 10.559c0.0189-4.2158 1.0194-4.6282 3.3837-1.3949 1.3323 1.822 2.2853 1.9932 4.8136 0.86449 3.1033-1.3853 3.0692-1.4495-2.1808-4.1091-2.9333-1.486-7.3609-3.1397-9.8391-3.675-4.4419-0.95939-4.4972-0.91442-3.8976 3.1706 0.3345 2.2791 0.39376 4.1438 0.13174 4.1438-0.26207 0-2.3203-2.1-4.5739-4.6667-2.542-2.8952-5.3103-4.6667-7.2926-4.6667-4.3157 0-4.0291 1.3353 1.42 6.6168 2.5384 2.4603 5.5618 6.4681 6.7188 8.9063l2.1036 4.4331 4.598-2.9781c3.3932-2.1977 4.6023-3.9388 4.6145-6.6447zm-99.729-15.865c1.226-1.7262 1.1046-2.8961-0.56522-5.4445-2.8589-4.3632-10.382-7.995-12.655-6.1089-3.5032 2.9074-1.0801 17.408 3.9145 23.426 1.2787 1.5408 2.1146 0.84041 4.6515-3.8977 1.701-3.1768 3.7954-6.7654 4.6542-7.9747zm-22.143-7.227c4.6637-7.7448 4.6711-7.7828 2.1891-11.173-3.4612-4.7274-10.938-8.419-13.219-6.5265-3.6167 3.0016-1.8814 15.057 3.3826 23.5 2.2426 3.597 1.7739 3.9525 7.6469-5.8006zm-21.762-8.9435c2.0257-4.5636 3.6757-9.5545 3.6667-11.091-0.02921-4.9843-4.84-7.871-13.158-7.8952-4.1389-0.012-8.8358-0.76205-10.438-1.6667-3.8486-2.1735-8.2472-2.0667-12.806 0.31096-2.536 1.3228-4.6971 1.567-6.7981 0.7682-4.7816-1.818-9.3985 1.1231-9.9019 6.3078-0.39768 4.0958 4.3346 14.968 6.515 14.968 0.51668 0 1.3091-1.9707 1.761-4.3793 0.45186-2.4086 1.7662-5.728 2.9208-7.3764 2.0891-2.9826 2.1247-2.9578 7.3424 5.115 4.7666 7.3748 7.8787 9.2558 7.8787 4.762 0-3.0053 8.3971-13.625 9.037-11.429 1.225 4.2042 8.733 19.972 9.4937 19.938 0.44144-0.0197 2.46-3.7697 4.4857-8.3333zm35.049-36.535c2.9257-3.8776 7.2789-17.765 8.1578-26.024l0.80821-7.5954 8.571 7.2713c17.851 15.144 30.682 22.377 42.397 23.898 12.595 1.6361 21.338 3.6016 24.667 5.5449 2.3418 1.3673 1.9978 0.76753-1.1563-2.0163-2.7873-2.4601-7.843-4.8527-13.333-6.31-17.704-4.699-28.435-11.007-47.34-27.827-17.544-15.609-26.762-18.865-50.031-17.67-19.671 1.0098-46.592 9.5257-44.766 14.16 0.4639 1.1769 1.1184 6.6397 1.4544 12.14l0.61092 10-3.7869-7.9695c-2.0828-4.3832-4.1883-7.3199-4.6789-6.5261-1.0941 1.7704-4.9729 23.632-4.9729 28.029 0 2.7998 0.44257 3.077 3.6667 2.2968 2.0167-0.48802 5.0928-1.4135 6.8358-2.0567 10.726-3.9578 33.295-2.3878 50.692 3.5265 7.9124 2.6898 9.3915 2.8191 14.588 1.2754 3.1808-0.94484 6.6079-2.8108 7.6158-4.1466zm-43.399-14.8c0-1.5491 14.327-19.285 17.717-21.933 5.6295-4.3969 14.262-2.3131 20.949 5.0572 3.4383 3.7892 3.288 3.8337-3.5036 1.0385-0.82698-0.34036-3.3361 1.6044-5.5759 4.3216-3.9149 4.7494-4.3146 4.9072-10.339 4.0815-5.7045-0.78189-6.8491-0.44057-12.757 3.8041-3.5699 2.5647-6.4906 4.1982-6.4906 3.63zm142.36 5.2567c0.93007-0.59033 2.2472-3.0126 2.927-5.3828 0.97329-3.3937 0.81559-4.4708-0.74208-5.0685-2.687-1.0311-11.738 0.52149-17.673 3.0315l-4.8695 2.0595 6 3.0562c6.3559 3.2375 11.569 4.0741 14.358 2.304zm-30.165-23.303c7.0726-3.4573 16.864-7.2743 21.759-8.4823 8.0458-1.9855 9.9813-2.0077 20.169-0.23113 11.854 2.0672 13.178 1.3843 6.6996-3.4552-3.2016-2.3916-5.6106-2.7478-18.583-2.7478-13.734 0-15.742 0.33999-25.571 4.3299-5.8667 2.3814-13.934 6.2107-17.928 8.5095l-7.2612 4.1796 3.1298 2.5343c1.7214 1.3939 3.4889 2.3351 3.9279 2.0917 0.43899-0.24343 6.5848-3.2713 13.657-6.7286z" fill="#4e6f1a"/>
<path d="m85.57 309.09c-6.3831-1.4267-7.9298-3.2166-21.904-25.35-6.8227-10.807-7.6572-12.892-7.5811-18.943 0.12903-10.248 2.9904-22.524 4.823-20.691 1.0955 1.0956 1.7261 0.30994 2.3894-2.9768 1.8786-9.3087 2.0544-9.6154 3.9933-6.9638 1.5325 2.0958 1.8205 1.7562 2.644-3.1183 0.50832-3.0087 1.6954-6.525 2.638-7.8141 1.537-2.102 1.8075-1.8444 2.6219 2.4969 1.4305 7.6253 3.0534 6.918 4.0351-1.7584 0.99477-8.7926 2.1359-9.8316 4.7305-4.3074 1.9182 4.084 2.125 3.7485 3.3693-5.4661l0.87314-6.4661 5.7968 11.599 0.66667-8.6667c0.60591-7.8768 0.82284-8.3932 2.3802-5.6667 2.6063 4.5628 3.7482 3.6078 3.1527-2.6368-0.46913-4.9193-0.27995-5.423 1.4861-3.9573 1.7116 1.4205 2.248 1.0359 3.4786-2.4941 5.5108-15.808 1.464-42.801-8.2825-55.245-2.0255-2.586-2.117-2.529-3.029 1.8856l-0.9404 4.5523-2.4136-2.9807c-1.3275-1.6394-2.8048-5.0659-3.2829-7.6144-1.0674-5.6898-1.8741-5.0003-4.5552 3.8935l-2.0892 6.9305-3.619-7.2618c-1.9905-3.994-3.619-8.644-3.619-10.333 0-5.688-2.3646-3.1317-4.2504 4.5951-1.0291 4.2167-2.4438 7.6063-3.1437 7.5325-0.6999-0.0738-3.3726-4.382-5.9392-9.5738s-5.0487-9.4814-5.5157-9.5325-1.6034 3.905-2.5254 8.7914c-1.5407 8.1653-1.8314 8.6779-3.5921 6.3333-3.2829-4.3714-9.6991-17.691-9.7205-20.18-0.03911-4.5429-2.4212 1.1452-3.3707 8.0487-0.87459 6.3591-0.97051 6.4761-3.3312 4.0638-1.3369-1.3661-3.9027-5.4173-5.7019-9.0027l-3.2712-6.5189-2.4154 3.8522c-1.3285 2.1187-2.6032 4.1084-2.8328 4.4216-1.4765 2.0144-11.36-16.522-14.204-26.639-3.1919-11.356-3.8313-20.924-2.2672-33.93 3.8536-32.045 9.5029-41.905 28.548-49.828 16.221-6.7479 29.553-9.7503 46.575-10.489 13.62-0.59083 16.817-0.30714 24.042 2.1336l8.3338 2.815 6.9721-2.6492c11.627-4.4178 23.59-2.9414 31.19 3.849l4.104 3.6669-6.9723 5.0091c-3.8348 2.755-6.7635 5.2164-6.5084 5.4697 0.25518 0.25332 7.664-3.0899 16.464-7.4293 24.461-12.062 30.96-13.171 52.667-8.9861 13.459 2.5949 16.604 4.5471 23.227 14.418 8.2168 12.247 16.827 30.481 17.742 37.573 0.54214 4.2013 2.1281 7.2958 5.8055 11.327 13.21 14.482 32.712 43.378 42.578 63.086l4.3214 8.6324-1.6483 11.368c-5.5782 38.469-23.894 87.093-36.152 95.972-7.9068 5.7276-44.196 23.416-56.109 27.349-8.2477 2.723-12.865 3.3792-23.777 3.3792h-13.542l-14.223 11.118c-7.8226 6.1151-17.44 13.315-21.372 16l-7.1496 4.8816-17.517-0.14279c-9.6344-0.0785-20.11-0.72241-23.28-1.4308zm42.563-16.001c3.2267-2.3328 16.463-12.79 29.414-23.238 25.817-20.827 27.734-22.049 38.452-24.521 10.937-2.5222 13.34-4.1633 22.736-15.525l8.5973-10.396-0.044-15.791c-0.0485-17.415 0.19479-17.574 6.9043-4.4933 4.9172 9.5862 8.4731 25.15 8.4731 37.085 0 5.7494 0.34316 10.453 0.76257 10.453 1.8781 0 12.32-6.9298 15.504-10.289 8.2256-8.6791 26.779-64.28 28.658-85.881 0.75706-8.7061 0.66662-9.0242-6.1465-21.625-9.8955-18.302-21.093-34.907-30.087-44.618l-7.7919-8.413-3.815 7.0797c-4.2291 7.8483-12.429 18.145-13.564 17.031-0.40076-0.39355 0.73693-4.7532 2.5282-9.6881 1.7913-4.9349 4.2547-14.051 5.4743-20.258l2.2174-11.285-7.6148-15.307c-11.022-22.157-14.156-24.151-36.388-23.159-12.485 0.55738-23.208 4.1932-38.832 13.168-7.9557 4.5696-7.8069 6.3853 0.81894 9.9894 6.2685 2.6191 9.5684 2.4159 24.277-1.4954 21.872-5.8164 37.951-4.1422 46.038 4.7935 3.3018 3.6485 1.9276 4.3648-3.7903 1.9757-2.6557-1.1096-6.3478-2.0175-8.2047-2.0175-2.8231 0-3.3762 0.62263-3.3762 3.801 0 4.7799-2.4408 12.167-4.9991 15.129-1.1017 1.2758-4.3652 2.4396-7.4779 2.6667l-5.523 0.40298 3.4736 2.3602c2.2492 1.5283 7.3015 2.6554 14.333 3.1976 5.9728 0.46059 10.86 1.2869 10.86 1.8363 0 1.7057-17.506 4.1445-23.039 3.2097-3.5675-0.60273-6.9988-2.5842-10.707-6.1834-6.7055-6.5075-10.009-8.2595-20.884-11.078-15.145-3.9245-27.782-11.586-44.036-26.699-4.7667-4.4319-10.767-9.3368-13.333-10.9-16.893-10.287-47.004-9.715-74.463 1.4154-6.4449 2.6125-7.4971 3.5228-7.2591 6.2811 0.15309 1.7742 0.62197 7.1258 1.042 11.892l0.76361 8.6667-3.651-7c-2.0081-3.85-4.0646-7-4.5701-7-1.0937 0-5.2027 21.604-5.1988 27.333l0.0027 4h20.333c17.958 0 21.495 0.38044 30.279 3.2568 5.4699 1.7912 13.87 5.9487 18.667 9.2388 27.377 18.778 34.788 23.512 44.272 28.28 15.133 7.6086 26.212 9.9388 36.45 7.6665 11.402-2.5306 31.581-2.185 41.333 0.70792 4.4 1.3052 11.9 4.6518 16.667 7.4369 8.5154 4.9755 8.856 5.0524 19.52 4.4089l10.853-0.65498 6.2492 5.7603c10.185 9.3886 10.529 10.778 6.0002 24.255-5.1137 15.218-10.928 27.839-13.962 30.31-2.2889 1.8638-2.3913 1.773-1.5038-1.3333 3.0098-10.534 7.4876-31.99 7.498-35.927 8e-3 -3.1796-1.0908-5.7449-3.5707-8.3333-3.106-3.242-4.5954-3.7396-11.193-3.7396-4.1855 0-11.423 1.1785-16.084 2.6188-27.276 8.4297-45.308 34.01-49.378 70.048-0.74529 6.6-1.5939 13.293-1.8858 14.873-0.57461 3.1109-24.402 21.66-51.769 40.302l-15.892 10.825h-31.719l2.8329 5c6.4053 11.305 7.8276 11.867 30.804 12.166 12.385 0.16148 12.99 0.0295 18.667-4.0745zm-67.632-247.54c7.5545-9.8176 14.792-16.215 18.344-16.215 3.7182 0 11.033 3.5856 13.998 6.861 2.3695 2.6183 2.3475 2.6545-1.0898 1.7917-2.9195-0.73275-4.2908-0.02651-8.1722 4.2088-4.5383 4.9521-4.8074 5.0511-9.9811 3.6701-4.974-1.3276-5.7121-1.1325-11.44 3.0245-3.3679 2.4441-6.4665 4.4437-6.8858 4.4437s1.9333-3.5033 5.2281-7.7851zm33.57 221c0.4926-0.79703-0.02848-3.647-1.158-6.3333-1.1295-2.6863-2.446-6.6836-2.9257-8.8829l-0.87209-3.9987-1.8094 3.332c-2.8023 5.1604-3.8045 13.125-1.9348 15.378 1.8949 2.2832 7.4033 2.6028 8.7 0.50472zm-14.243-3.8037c-0.7515-2.1558-1.7909-8.0058-2.3097-13l-0.94334-9.0804-2.31 4.3104c-3.6957 6.8961-4.4396 15.884-1.5765 19.047 1.3152 1.4532 3.767 2.6423 5.4486 2.6423 2.8041 0 2.9441-0.3247 1.691-3.9196zm26.25 2.0123c2.5509-1.8798 2.5455-1.9901-0.37658-7.6667-1.6306-3.1677-3.1903-6.9594-3.4659-8.4261-0.40197-2.1388-0.93678-1.6855-2.7019 2.2905-2.2241 5.0099-2.9477 13.185-1.3118 14.821 1.4755 1.4756 5.1116 1.0042 7.8563-1.0184zm11.427-6.915c2.2778-2.0614 2.2301-2.4548-1.0904-9-2.9942-5.9019-3.6161-6.4772-4.5166-4.1777-1.5126 3.8628-1.4437 9.7791 0.14858 12.754 1.6788 3.1369 2.3983 3.1927 5.4584 0.4234zm11.916-7.2246c3.328-1.7811 3.2687-2.3832-0.98259-9.9896-3.3474-5.9892-3.6296-6.1886-4.6923-3.3158-1.4642 3.958 0.30379 14.686 2.4202 14.686 0.3716 0 1.8362-0.62111 3.2546-1.3802zm12.441-10.782c-0.0761-0.27722-1.6365-3.4519-3.4676-7.0548-3.3051-6.5033-3.336-6.5238-4.2633-2.8289-0.85683 3.4139-0.052 10.52 1.4864 13.125 0.58725 0.99416 6.5566-2.104 6.2444-3.2409zm-29.239-7.8374c1.0409 0 2.7475 1.2206 3.7924 2.7124 1.8355 2.6205 1.9286 2.5684 2.7502-1.5396 0.87988-4.3994 3.0312-7.8394 4.9026-7.8394 0.59116 0 2.0177 0.94286 3.1701 2.0952 1.9048 1.9048 2.0952 1.797 2.0952-1.1856 0-1.8045 1.1613-4.6973 2.5806-6.4286 2.4506-2.989 2.6991-3.0312 4.9299-0.83686 2.233 2.1965 2.432 2.1141 4.0216-1.6667 2.0502-4.8759 5.3329-5.1306 7.4087-0.57485l1.5504 3.4026 2.7544-5.736c3.493-7.274 6.5344-7.956 9.598-2.1522l2.3312 4.4163 1.7073-9.967c3.0193-17.627 9.3725-35.511 14.813-41.7 1.8576-2.113 1.8346-2.3333-0.243-2.3333-6.8721 0-13.379 6.4776-19.42 19.333-4.917 10.463-12.99 22.82-14.15 21.66-0.32336-0.32336 0.90628-3.2613 2.7325-6.5288 4.2234-7.5565 11.594-25.367 10.819-26.142-0.32378-0.32376-2.7147 0.11307-5.3133 0.97059-6.4366 2.1243-14.486 11.664-18.679 22.137-6.2084 15.508-13.468 24.92-28.365 36.774-8.3478 6.6426-8.4822 6.8482-5.4837 8.391 2.7933 1.4372 3.2897 1.178 5.439-2.8402 1.3008-2.432 3.2168-4.4218 4.2577-4.4218zm38.044 2.6842c1.6408-1.046 1.6989-1.7008 0.32365-3.6462-0.92199-1.3042-2.3683-3.7213-3.214-5.3713-2.2201-4.3314-3.7763-3.6895-3.7763 1.5576 0 8.1416 2.0314 10.415 6.6667 7.4599zm13.333-6.0867c0-1.5279-6.0435-11.244-7-11.254-1.237-0.0133-1.336 9.876-0.11107 11.101 1.0685 1.0685 7.1111 1.1985 7.1111 0.15305zm-27.512-81.028c0.42758-1.7036 2.2926-5.3302 4.1445-8.0592 4.3377-6.392 4.2426-8.2773-0.5009-9.9309-7.9746-2.78-12.641 5.7615-8.628 15.792 2.4121 6.0284 3.8626 6.6681 4.9844 2.1983zm-13.384-21.128c-4.0735-4.2677-9.7033-6.0221-11.291-3.5185-2.238 3.5287-1.1356 12.071 2.3949 18.557l3.5418 6.5075 8.7512-17.987zm83.546 10.559c0.0189-4.2158 1.0194-4.6282 3.3837-1.3949 1.3323 1.822 2.2853 1.9932 4.8136 0.86449 3.1033-1.3853 3.0692-1.4495-2.1808-4.1091-2.9333-1.486-7.3609-3.1397-9.8391-3.675-4.4419-0.95939-4.4972-0.91442-3.8976 3.1706 0.3345 2.2791 0.39376 4.1438 0.13174 4.1438-0.26207 0-2.3203-2.1-4.5739-4.6667-2.542-2.8952-5.3103-4.6667-7.2926-4.6667-4.3157 0-4.0291 1.3353 1.42 6.6168 2.5384 2.4603 5.5618 6.4681 6.7188 8.9063l2.1036 4.4331 4.598-2.9781c3.3932-2.1977 4.6023-3.9388 4.6145-6.6447zm-99.729-15.865c1.226-1.7262 1.1046-2.8961-0.56522-5.4445-2.8589-4.3632-10.382-7.995-12.655-6.1089-3.5032 2.9074-1.0801 17.408 3.9145 23.426 1.2787 1.5408 2.1146 0.84041 4.6515-3.8977 1.701-3.1768 3.7954-6.7654 4.6542-7.9747zm-22.143-7.227c4.6637-7.7448 4.6711-7.7828 2.1891-11.173-3.4612-4.7274-10.938-8.419-13.219-6.5265-3.6167 3.0016-1.8814 15.057 3.3826 23.5 2.2426 3.597 1.7739 3.9525 7.6469-5.8006zm-21.762-8.9435c2.0257-4.5636 3.6757-9.5545 3.6667-11.091-0.02921-4.9843-4.84-7.871-13.158-7.8952-4.1389-0.012-8.8358-0.76205-10.438-1.6667-3.8486-2.1735-8.2472-2.0667-12.806 0.31096-2.536 1.3228-4.6971 1.567-6.7981 0.7682-4.7816-1.818-9.3985 1.1231-9.9019 6.3078-0.39768 4.0958 4.3346 14.968 6.515 14.968 0.51668 0 1.3091-1.9707 1.761-4.3793 0.45186-2.4086 1.7662-5.728 2.9208-7.3764 2.0891-2.9826 2.1247-2.9578 7.3424 5.115 4.7666 7.3748 7.8787 9.2558 7.8787 4.762 0-3.0053 8.3971-13.625 9.037-11.429 1.225 4.2042 8.733 19.972 9.4937 19.938 0.44144-0.0197 2.46-3.7697 4.4857-8.3333zm134.01-46.078c0.93007-0.59033 2.2472-3.0126 2.927-5.3828 0.97329-3.3937 0.81559-4.4708-0.74208-5.0685-2.687-1.0311-11.738 0.52149-17.673 3.0315l-4.8695 2.0595 6 3.0562c6.3559 3.2375 11.569 4.0741 14.358 2.304z" fill="#374c13"/>
<path d="m86.98 309.25c-3.1279-0.61667-6.2699-1.4814-6.9822-1.9216-1.7845-1.1029-17.631-25.333-21.298-32.564-2.4149-4.763-2.8331-7.2029-2.1713-12.667 2.0066-16.566 2.4175-18.279 4.2185-17.588 1.8183 0.69776 2.372-0.46204 3.945-8.2641 0.81939-4.0641 1.0342-4.2242 2.6818-2 1.6217 2.1893 1.8778 1.8847 2.7081-3.2209 0.50439-3.1013 1.6699-6.6683 2.59-7.9266 1.466-2.0049 1.7897-1.5969 2.6167 3.2985 1.4378 8.5104 2.9708 7.8396 3.9976-1.7493 0.50951-4.7577 1.3823-8.6504 1.9396-8.6504 0.55725 0 1.8089 1.65 2.7814 3.6667l1.7683 3.6667 2.8915-14.363 2.3118 4.848c1.2715 2.6664 2.8098 4.848 3.4184 4.848 0.60866 0 0.88738-3.75 0.61938-8.3333-0.4511-7.7147-0.33369-8.1412 1.5816-5.7452 1.1379 1.4235 2.0689 3.0735 2.0689 3.6667s0.58852 1.0785 1.3078 1.0785c0.79226 0 0.96816-2.4967 0.44621-6.3333-0.78685-5.7837-0.67029-6.1756 1.3431-4.5165 2.5436 2.0961 2.6739 1.8854 4.8348-7.8168 3.1667-14.219 0.69752-31.61-6.3124-44.462-4.16-7.6264-5.9806-8.3514-7.0212-2.7961l-0.73512 3.9244-2.9316-5.6135c-1.6124-3.0875-2.9316-6.5375-2.9316-7.6667 0-1.1292-0.6-2.0531-1.3333-2.0531-0.73333 0-1.3367 0.75-1.3408 1.6667-0.01856 4.1594-2.9202 11.663-4.2035 10.87-2.2042-1.3623-6.3942-11.492-6.4265-15.536-0.04725-5.9162-2.0525-4.2223-3.9463 3.3333-2.855 11.391-3.3027 11.591-7.9713 3.5574-2.309-3.9732-4.5537-8.8741-4.9883-10.891-1.29-5.9867-2.5925-4.2475-4.402 5.8779l-1.7057 9.5445-4.5509-7.2112c-2.503-3.9662-5.2206-9.4416-6.0391-12.168-1.9661-6.5479-3.3633-5.341-4.5182 3.9027l-0.94593 7.571-3.05-3.8251c-1.6775-2.1038-4.0849-6.1202-5.3499-8.9253-1.2649-2.8051-2.6794-5.1002-3.1433-5.1002s-1.9349 1.8478-3.269 4.1062l-2.4256 4.1062-3.3157-4.8796c-11.875-17.476-15.491-40.636-10.624-68.055 4.0673-22.917 11.332-32.039 31.292-39.293 25.966-9.437 50.118-11.864 65.728-6.6054l8.0531 2.7129 9.2622-2.9831c8.2883-2.6694 10.048-2.8184 16.73-1.4166 4.1075 0.86155 9.5989 3.1917 12.203 5.178l4.735 3.6116-3.1957 2.0922c-5.0964 3.3365-12.073 9.7219-11.38 10.415 0.34907 0.34908 2.4696-0.67192 4.7124-2.2689 6.6247-4.7172 28.848-14.622 37.098-16.534 12.554-2.91 39.463 1.1601 45.136 6.8269 7.8315 7.8228 22.907 36.438 24.175 45.885 0.61107 4.5559 2.717 8.037 10.569 17.472 12.516 15.038 27.066 36.722 35.42 52.787 6.1328 11.794 6.4813 12.998 5.6093 19.375-3.7476 27.409-14.031 61.883-24.901 83.476-5.67 11.264-8.0883 14.67-12.49 17.595-9.9378 6.6026-42.341 22.162-54.933 26.378-10.746 3.5978-14.062 4.1178-24.964 3.9146l-12.572-0.23435-10.075 7.8356c-5.5413 4.3096-15.216 11.586-21.5 16.169l-11.425 8.3333-16.87-0.1461c-9.2784-0.0804-19.429-0.65062-22.557-1.2673zm42.605-16.626c3.895-2.7907 16.082-12.377 27.082-21.302 24.925-20.224 28.64-22.63 39.04-25.283 12.549-3.201 13.71-3.9927 23.32-15.904l8.8776-11.002 0.38081-14.568 0.38083-14.568 3.5372 6.7003c6.2242 11.79 9.59 25.348 9.6736 38.966 0.0416 6.7833 0.48184 12.333 0.97817 12.333s4.7068-2.55 9.3567-5.6667c7.3084-4.8986 9.0526-6.9099 12.869-14.839 9.1363-18.982 24.252-70.102 24.252-82.017 0-3.7895-11.855-26.092-22.047-41.477-8.319-12.557-21.151-28-23.266-28-0.60467 0-2.8934 3.1787-5.086 7.0638-4.3104 7.6376-10.91 16.072-11.845 15.137-0.31837-0.31838 0.37153-2.8535 1.5332-5.6336 3.2219-7.7112 7.3775-25.059 7.3775-30.798 0-6.1107-11.18-29.848-16.985-36.062-4.7165-5.049-15.943-7.712-27.833-6.6017-9.1004 0.84981-28.795 8.2004-38.554 14.39-6.0288 3.8233-6.1731 4.0619-3.9462 6.5226 1.2713 1.4048 4.7936 3.5021 7.8274 4.6607 5.2969 2.0229 6.1759 1.9454 22.137-1.9521 24.082-5.8807 34.648-5.1909 43.092 2.8129 3.0503 2.8915 3.504 3.772 1.5956 3.0968-4.7231-1.671-13.002-3.4106-13.563-2.8498-0.29943 0.29942-1.038 3.667-1.6414 7.4836-1.5482 9.7942-4.9678 13.902-12.262 14.731l-5.8671 0.66667 4.824 3c3.1476 1.9575 7.0861 3.0462 11.333 3.1329 3.5801 0.07309 8.0093 0.58126 9.8426 1.1292 2.7342 0.81727 1.9405 1.1823-4.4165 2.0311-13.388 1.7876-18.593 0.51087-26.351-6.464-4.8742-4.3824-9.0526-6.7759-14.384-8.24-20.482-5.6244-31.726-12.068-50.113-28.716-18.904-17.117-34.493-21.321-61.402-16.559-5.8667 1.0383-15.972 3.8626-22.455 6.2764l-11.789 4.3886 0.7878 4.6771c0.43329 2.5724 1.1025 7.9771 1.4871 12.01l0.6993 7.3333-3.5346-7.6667c-1.944-4.2167-3.9552-7.6667-4.4694-7.6667-1.4831 0-4.1961 13.07-5.0032 24.103l-0.73912 10.103 10.462-1.2176c12.642-1.4713 30.961 0.41143 42.749 4.3937 4.5074 1.5226 12.007 5.4095 16.667 8.6374 25.999 18.012 33.268 22.682 42.4 27.243 16.682 8.3304 23.001 9.9344 33.945 8.6168 5.2027-0.62633 16.659-1.118 25.459-1.0927 17.75 0.0511 26.025 2.1954 37.915 9.8247 5.8864 3.7773 7.1715 4.0548 18.776 4.0548h12.457l5.7887 6.2161c3.1838 3.4188 6.105 7.4765 6.4917 9.0171 1.2918 5.1468-13.546 43.434-16.833 43.434-0.53988 0 0.17628-3.7203 1.5915-8.2674 1.4152-4.547 3.5002-13.64 4.6334-20.206 1.9745-11.442 1.9537-12.083-0.4995-15.399-4.5204-6.1113-8.7694-7.3272-19.51-5.5831-22.218 3.6079-39.775 16.784-49.908 37.456-6.3514 12.958-8.9502 22.353-10.828 39.144-0.72636 6.496-2.0902 12.752-3.0308 13.902-2.6204 3.2041-37.323 28.924-53.001 39.281l-13.957 9.2207-15.045-0.44092c-8.2745-0.24252-15.044 0.0523-15.043 0.65497 0.0027 1.7031 6.5688 12.495 8.6564 14.227 2.5037 2.0779 17.915 3.9047 28.93 3.4293 7.8905-0.34056 9.7342-0.96956 16-5.4588zm-67.368-248.77c7.3898-9.4061 13.077-14.528 16.131-14.528 2.9383 0 13.06 5.0129 15.11 7.4839 1.4487 1.7456 1.1704 1.8907-2.0673 1.0781-3.2264-0.80978-4.3191-0.25091-7.9384 4.0601-4.1099 4.8954-4.3069 4.9685-9.4914 3.5218-4.9098-1.3701-5.7089-1.1868-11 2.5227-3.1381 2.2001-6.0279 4.0001-6.4218 4.0001s2.1612-3.6624 5.6779-8.1386zm31.867 222.4c0.36663-0.95543-0.2522-3.9362-1.3752-6.6238-1.123-2.6877-2.0418-6.456-2.0418-8.374 0-4.7751-2.749-3.5462-4.8067 2.1488-2.1825 6.0403-2.2787 12.862-0.1933 13.703 3.2569 1.3142 7.7603 0.85719 8.417-0.85412zm-13.441-1.9295c-1.5931-3.8073-3.1886-12.642-3.2509-18-0.11615-10.001-5.1074-2.861-6.3456 9.0779-0.80029 7.7165 1.461 11.255 7.1921 11.255 2.7028 0 3.185-0.4679 2.4044-2.3333zm24.779 0.9531c2.826-1.5124 3.3982-5.2672 1.146-7.5195-0.78818-0.78819-2.2146-3.7063-3.1697-6.4847l-1.7367-5.0516-1.7304 3.218c-2.1357 3.9717-3.8964 13.088-2.9861 15.46 0.80755 2.1044 4.909 2.2871 8.4769 0.37764zm12.523-7.0806c2.3524-1.7201 2.2976-2.1131-1.3278-9.5231-3.0915-6.3188-3.9621-7.2686-4.7717-5.2059-0.54467 1.3877-1.0325 4.724-1.084 7.4141-0.16818 8.7772 2.0687 11.055 7.1836 7.3149zm12.135-8.1038c2.5299-1.8552 2.4986-2.0639-1.3927-9.2728-3.1451-5.8264-4.2282-6.933-5.1586-5.2704-0.64774 1.1574-0.811 4.7799-0.36279 8.05 1.2244 8.9327 2.2605 9.9057 6.9141 6.4931zm10.251-8.4354c1.896-2.1308 1.7592-2.8828-1.5749-8.6629-2.0081-3.4812-4.0494-5.9312-4.5362-5.4444-2.3252 2.3252 0.14338 16.441 2.8752 16.441 0.63783 0 2.094-1.05 3.2358-2.3333zm-31.749-5c2.3192-5.5505 5.3069-5.991 7.8403-1.1557l1.8396 3.5109 1.5555-6.1776c1.5792-6.2717 4.4596-8.0351 7.7501-4.7447 1.0217 1.0217 1.6933 0.0449 2.3402-3.4034 0.98214-5.2353 3.858-7.2517 7.2715-5.0984 1.7031 1.0743 2.6477 0.53516 4.5538-2.5992 2.3201-3.8151 2.4967-3.8717 5.0032-1.6033 1.429 1.2933 2.5982 3.1584 2.5982 4.1447 0 0.98633 0.6 1.7933 1.3333 1.7933 0.73333 0 1.3333-1.7335 1.3333-3.8523 0-2.1188 1.1312-5.2493 2.5138-6.9568 2.2232-2.7456 2.7788-2.8846 4.8056-1.2025 1.2605 1.0461 2.9072 3.4266 3.6594 5.2901 1.1942 2.9586 1.7483 1.5286 4.3698-11.279 3.2868-16.058 7.3538-27.938 12.21-35.667l3.1416-5h-3.0406c-6.1223 0-12.279 5.9326-17.528 16.889-5.6636 11.823-12.82 23.534-13.789 22.565-0.35597-0.35598 0.57915-2.6316 2.0781-5.0569 1.4989-2.4253 4.8432-9.4314 7.4318-15.569l4.7065-11.16-4.5865 0.74428c-8.4314 1.3682-13.577 6.8287-20.872 22.148-8.3156 17.463-14.366 25.481-27.142 35.966-9.212 7.5607-12.584 11.73-8.0934 10.007 1.0258-0.39364 2.2612-0.0748 2.7454 0.70852 1.3593 2.1994 1.8712 1.7813 3.9702-3.2424zm42.919-2.6194c0.41212-1.074-0.50671-3.7166-2.0418-5.8725-1.5351-2.1559-2.7912-4.5772-2.7912-5.3807 0-0.80346-0.6-1.4608-1.3333-1.4608-1.4689 0-1.8674 12.355-0.44444 13.778 1.609 1.609 5.8468 0.92709 6.6108-1.0638zm10.971-4.5647c1.4586-0.92427 1.2032-2.1953-1.3333-6.636-1.7256-3.021-3.5875-5.4974-4.1375-5.503-1.2368-0.0133-1.3371 11.208-0.11107 12.434 1.2027 1.2027 3.4017 1.0864 5.5819-0.29517zm-26.471-80.682c0-1.0263 2.1-4.9866 4.6667-8.8006 2.5667-3.814 4.6667-7.205 4.6667-7.5354 0-1.3209-9.3134-4.3886-11.166-3.6778-1.9507 0.74858-4.8344 7.1836-4.8344 10.788 0 3.1228 3.7829 11.092 5.2653 11.092 0.77076 0 1.4014-0.83971 1.4014-1.866zm-16-4.0141c0-0.94749 1.4932-4.5311 3.3183-7.9635 2.7495-5.171 3.0433-6.6811 1.7143-8.8092-2.2523-3.6065-9.5574-7.2761-12.351-6.2042-3.4116 1.3092-2.2629 14.651 1.8319 21.276 2.8862 4.67 5.4862 5.4759 5.4862 1.7006zm83.844-2.1739c3.2915-3.0063 4.2476-4.8153 3.6996-7l-0.73896-2.946 2.3162 2.8002c1.784 2.1569 3.0131 2.5424 5.3499 1.6779 1.7418-0.64431 2.6433-1.754 2.1169-2.6057-1.2943-2.0942-11.335-6.4748-14.921-6.5098-2.4984-0.0244-3 0.69132-3 4.2802v4.3095l-3.3814-4.9762c-2.8115-4.1375-4.1598-4.9762-8-4.9762-2.5402 0-4.6186 0.19266-4.6186 0.42813s2.6881 3.2336 5.9735 6.6625c3.2854 3.4289 6.3505 7.7362 6.8112 9.5719 1.0975 4.3728 2.9985 4.2105 8.3928-0.71645zm-97.037-26.17c-1.4398-3.16-5.6461-6.2881-10.328-7.681-5.5681-1.6564-6.6813 9.9763-1.8439 19.27 3.6615 7.0343 4.1299 6.9819 8.9358-0.99914 3.7619-6.2473 4.3452-8.1558 3.2364-10.589zm-22.091-2.4317c2.5395-4.2172 4.6172-8.0827 4.6172-8.59 0-1.7014-7.2957-7.9041-10.897-9.2642-3.8647-1.4597-5.4139-0.43568-6.9511 4.5945-1.3992 4.5788 5.7431 23.798 8.0038 21.537 0.33527-0.33527 2.6873-4.06 5.2268-8.2772zm-20.789-10.055c4.0856-8.8637 4.2058-9.5545 2.1974-12.62-3.0817-4.7032-7.0889-6.3917-13.464-5.6731-3.3338 0.37576-6.9114-0.08529-8.8048-1.1347-4.1933-2.3241-10.712-2.326-13.887-4e-3 -1.8238 1.3336-3.4706 1.5048-5.8333 0.60646-4.0739-1.5489-10.734 0.90139-10.955 4.0305-0.41162 5.8218 4.0428 17.505 6.674 17.505 0.62312 0 1.8857-2.6886 2.8058-5.9747 2.5534-9.12 4.1904-9.5378 8.3534-2.1322 5.8755 10.452 6.7374 10.613 11.516 2.1461 4.5371-8.0393 6.1292-8.9598 7.5621-4.3726 2.0291 6.4958 7.1608 17 8.3052 17 0.66512 0 3.1543-4.2196 5.5314-9.377zm135.47-48.58c1.0626-2.5431 1.932-5.3174 1.932-6.1651 0-2.2019-12.692-0.86499-19.333 2.0365l-5.3333 2.3299 6 3.0695c3.3 1.6882 7.9806 3.1333 10.401 3.2113 3.817 0.12297 4.6579-0.47215 6.3333-4.482z" fill="#070706"/>
</g>
</svg>
